<?xml version="1.0" standalone="no"?>
<!DOCTYPE svg PUBLIC "-//W3C//DTD SVG 20010904//EN"
 "http://www.w3.org/TR/2001/REC-SVG-20010904/DTD/svg10.dtd">
<svg version="1.0" xmlns="http://www.w3.org/2000/svg"
 width="460.000000pt" height="460.000000pt" viewBox="0 0 460.000000 460.000000"
 preserveAspectRatio="xMidYMid meet">
<metadata>
Created by potrace 1.14, written by Peter Selinger 2001-2017
</metadata>
<g transform="translate(0.000000,460.000000) scale(0.100000,-0.100000)"
fill="#000000" stroke="none">
<path d="M0 4225 c0 -376 2 -401 35 -428 6 -5 0 -5 -12 -2 -21 6 -23 3 -23
-32 0 -33 5 -40 36 -55 39 -20 74 -23 74 -8 0 6 -8 10 -17 10 -17 1 -17 1 0
11 9 5 17 16 17 24 0 8 7 11 20 8 23 -6 26 -19 8 -26 -8 -3 -6 -6 5 -6 12 -1
17 7 17 29 0 25 -4 30 -35 36 -20 3 -39 4 -42 0 -10 -10 -33 15 -33 36 0 10 7
21 15 24 18 7 20 30 3 37 -10 4 -9 8 2 16 26 18 30 12 30 -44 0 -41 4 -55 14
-55 8 0 23 -3 33 -6 13 -4 14 -3 5 4 -9 6 -13 24 -11 48 2 22 0 45 -5 52 -4 7
-4 12 1 12 4 0 0 5 -9 11 -24 14 -23 29 3 29 15 0 19 4 14 19 -3 11 -1 22 5
26 5 3 10 1 10 -5 0 -11 19 -10 72 6 29 9 10 -24 -20 -35 -17 -6 -21 -10 -10
-10 10 -1 22 -10 28 -21 11 -20 50 -28 50 -10 0 6 -10 10 -22 10 -21 0 -21 0
2 20 26 22 35 26 24 9 -4 -8 0 -9 15 -4 24 7 29 -13 9 -33 -9 -9 -9 -12 -1
-12 22 0 27 42 7 57 -20 15 -14 25 19 29 21 2 23 -1 20 -24 -3 -15 -9 -37 -15
-49 -6 -13 -8 -26 -5 -30 9 -9 36 27 37 48 0 9 7 22 15 29 13 10 15 9 15 -9 0
-13 7 -30 16 -39 15 -15 16 -14 10 6 -10 29 14 52 53 52 24 0 31 4 31 20 0 25
25 26 39 3 9 -16 10 -16 11 4 0 39 11 53 41 53 21 0 29 -5 29 -17 0 -29 17
-50 30 -37 8 8 7 14 -5 24 -9 8 -15 28 -14 54 0 37 1 38 10 17 6 -15 13 -21
19 -15 13 13 1 52 -19 57 -9 3 3 5 27 6 23 0 42 -3 42 -8 0 -5 3 -16 6 -25 4
-11 1 -16 -11 -16 -9 0 -15 -6 -12 -12 2 -7 10 -12 16 -11 6 2 11 -2 11 -7 0
-34 53 11 75 63 8 20 22 37 30 37 8 0 15 5 15 10 0 6 -9 10 -19 10 -13 0 -18
6 -17 18 3 22 56 30 56 9 0 -8 9 -17 20 -20 21 -5 28 7 9 18 -6 4 4 14 22 24
l33 18 29 -33 c16 -19 26 -38 22 -44 -3 -5 1 -10 10 -10 11 0 15 5 11 15 -4
10 1 15 14 15 11 0 20 6 20 13 0 8 9 22 20 32 11 10 20 24 20 31 0 17 11 23
67 34 42 8 52 6 83 -14 26 -16 43 -20 65 -15 17 4 24 7 18 8 -17 1 -16 32 2
67 17 32 20 74 6 74 -5 0 -14 -14 -20 -32 -6 -17 -14 -29 -17 -25 -11 11 21
67 38 67 10 0 18 -4 18 -10 0 -5 9 -10 19 -10 39 0 32 -38 -9 -53 -9 -3 -4 -6
11 -6 27 -1 59 -28 59 -50 0 -8 6 -7 17 4 10 10 27 15 44 13 19 -3 25 0 22 9
-3 7 -13 13 -22 13 -13 0 -13 2 -2 9 8 5 11 16 8 25 -5 13 1 16 28 16 19 0 35
4 35 9 0 12 34 20 120 26 42 3 78 11 82 18 6 9 8 9 8 0 0 -22 27 -14 35 10 6
19 8 20 12 4 5 -21 -22 -46 -49 -47 -10 0 -18 -6 -18 -13 0 -9 18 -12 65 -11
55 2 65 -1 70 -17 9 -28 25 -23 25 7 0 23 3 25 26 20 14 -4 41 -4 60 0 27 5
34 11 34 30 0 13 5 24 10 24 6 0 10 -13 10 -28 0 -34 -31 -67 -47 -51 -7 7
-12 6 -16 -5 -8 -20 2 -25 36 -19 15 3 27 12 27 20 0 21 32 51 38 35 2 -6 12
-12 22 -12 10 0 22 -5 25 -10 4 -6 13 -7 23 -1 17 9 24 11 40 11 4 0 13 14 21
32 l14 32 9 -25 c9 -23 10 -23 23 -5 8 10 20 16 27 13 18 -6 48 11 48 28 0 8
9 15 21 15 25 0 59 -17 59 -31 0 -6 -7 -6 -20 1 -11 6 -20 8 -21 5 -3 -20 0
-63 6 -77 9 -22 25 -14 25 12 0 11 12 26 29 34 30 16 41 13 41 -14 0 -19 22
-70 31 -70 3 0 0 21 -6 48 -8 27 -9 51 -4 57 19 20 10 37 -17 31 -22 -6 -25
-4 -22 16 2 16 10 24 28 25 l25 2 -25 -8 c-24 -9 -24 -9 -3 -10 12 -1 31 -10
41 -22 l20 -20 4 31 c3 20 -1 37 -10 47 -13 13 -13 16 -1 24 27 17 42 11 35
-15 -4 -18 -1 -26 11 -29 13 -3 12 -5 -5 -6 -17 -1 -22 -6 -20 -18 2 -10 10
-17 17 -15 7 1 20 -3 29 -10 13 -11 15 -9 10 15 -6 29 8 38 15 10 4 -17 5 -17
6 0 1 22 31 23 31 1 0 -9 -11 -27 -25 -40 -14 -13 -25 -29 -25 -36 0 -9 3 -9
10 2 9 13 11 13 20 0 5 -8 10 -27 10 -42 0 -21 5 -28 19 -28 14 0 18 5 14 20
-3 11 0 20 6 20 6 0 11 -5 11 -10 0 -7 6 -7 19 0 11 5 29 10 41 10 13 0 24 8
27 20 7 26 23 16 23 -15 0 -19 5 -23 25 -21 14 1 34 11 44 20 11 10 25 15 32
10 8 -4 10 -3 5 5 -11 17 17 41 30 27 6 -6 9 -17 6 -25 -3 -8 2 -12 14 -9 15
3 18 11 16 36 -3 31 -2 33 17 22 13 -6 19 -16 15 -23 -4 -7 -3 -8 2 -4 5 5 9
14 9 19 0 6 6 13 13 16 9 3 11 -4 8 -22 -3 -19 0 -26 10 -26 11 0 13 -6 9 -19
-4 -14 0 -21 14 -26 11 -3 20 -9 20 -13 -5 -30 3 -35 20 -13 17 23 49 22 35
-1 -4 -7 2 -7 17 -2 37 12 83 10 97 -3 23 -22 37 -15 57 30 l19 42 5 -35 c5
-31 9 -35 34 -32 29 4 34 -6 15 -27 -11 -11 -8 -12 12 -6 33 10 37 14 22 24
-10 6 -10 10 2 20 12 10 19 10 37 -2 12 -9 27 -13 34 -10 9 3 15 -5 17 -24 2
-15 8 -28 15 -28 6 0 20 -10 31 -22 10 -13 22 -20 26 -16 3 3 6 -4 6 -17 0
-17 -3 -21 -11 -13 -13 13 -51 5 -46 -11 2 -6 12 -10 21 -9 11 0 15 -4 12 -13
-7 -18 13 -29 27 -15 8 8 8 11 -1 11 -7 0 -12 4 -12 9 0 5 11 4 25 -2 14 -7
23 -17 21 -24 -3 -6 2 -17 10 -23 11 -10 14 -10 15 1 0 8 5 3 10 -11 8 -20 12
-22 20 -10 7 11 8 5 4 -20 -4 -19 -2 -46 3 -59 8 -23 9 -21 17 20 l9 44 6 -45
c4 -25 8 -38 9 -30 1 12 3 12 10 2 11 -18 61 -5 62 17 0 9 6 -2 13 -24 10 -33
16 -39 34 -37 17 3 22 -2 22 -19 0 -16 -5 -20 -20 -16 -21 5 -25 -4 -21 -57 2
-16 -3 -33 -11 -38 -9 -7 -8 -8 5 -4 11 3 30 9 43 12 18 5 24 13 24 35 0 22 5
29 19 29 25 0 37 -31 16 -42 -19 -11 -20 -28 0 -28 8 0 15 -5 15 -11 0 -6 6
-9 13 -6 6 2 10 15 9 28 -2 13 -1 21 3 18 3 -4 8 -27 10 -52 4 -38 2 -46 -15
-50 -11 -3 -20 -10 -20 -16 0 -14 17 -14 25 -1 5 8 11 7 21 -1 19 -15 29 -5
16 16 -10 18 4 71 26 98 10 12 18 13 43 4 16 -7 27 -17 25 -24 -3 -7 -1 -15 3
-17 5 -3 6 -17 3 -31 -3 -19 -1 -26 9 -25 27 4 40 0 34 -10 -4 -6 7 -10 25
-10 18 0 33 -6 36 -15 3 -8 21 -17 40 -21 19 -3 37 -11 41 -17 10 -17 -81 0
-122 23 -35 20 -37 20 -33 3 5 -19 -13 -43 -32 -43 -13 0 -13 -6 0 -30 13 -25
-7 -70 -32 -70 -22 0 -23 13 -3 30 8 7 15 18 15 25 0 7 -7 15 -15 19 -9 3 -15
0 -15 -9 0 -18 -31 -20 -48 -3 -15 15 -24 6 -16 -15 3 -9 15 -17 27 -19 14 -2
22 -10 22 -23 0 -11 5 -25 10 -31 15 -15 64 -11 75 6 7 11 10 6 10 -21 0 -48
29 -76 61 -58 17 9 24 9 27 0 6 -18 19 -13 25 10 4 16 10 20 24 14 10 -4 31
-10 46 -13 34 -5 30 -28 -4 -24 -23 2 -24 0 -20 -40 4 -31 6 -36 9 -18 5 29
18 40 50 40 12 0 22 5 22 11 0 8 4 8 15 -1 12 -10 12 -14 0 -26 -16 -16 -45
-19 -45 -4 0 6 -5 10 -11 10 -6 0 -9 -12 -7 -27 3 -31 34 -44 50 -21 7 9 8 7
5 -9 -3 -16 0 -23 9 -23 17 0 18 -9 3 -30 -8 -11 -12 -12 -16 -2 -6 15 -33 16
-33 2 0 -6 7 -13 15 -16 8 -4 15 -12 15 -19 0 -9 8 -8 34 4 28 13 34 20 29 39
-4 15 -1 22 10 22 8 0 17 -6 20 -12 3 -10 9 -10 25 -1 20 12 21 11 19 -37 -1
-37 -6 -50 -19 -54 -10 -2 -18 -9 -18 -15 0 -20 27 -12 46 13 21 28 38 24 30
-8 -2 -11 2 -32 9 -46 12 -22 14 68 15 668 l0 692 -2300 0 -2300 0 0 -375z
m1880 336 c0 -6 -4 -13 -10 -16 -5 -3 -10 1 -10 9 0 9 5 16 10 16 6 0 10 -4
10 -9z m-130 -31 c0 -5 -4 -10 -10 -10 -5 0 -10 5 -10 10 0 6 5 10 10 10 6 0
10 -4 10 -10z m-130 -20 c0 -11 -4 -20 -10 -20 -5 0 -10 9 -10 20 0 11 5 20
10 20 6 0 10 -9 10 -20z m1205 2 c-3 -3 -11 0 -18 7 -9 10 -8 11 6 5 10 -3 15
-9 12 -12z m-1087 -20 c2 -7 -7 -12 -23 -12 -24 0 -26 2 -15 15 14 17 31 16
38 -3z m1389 -12 c1 -22 1 -23 -4 -2 -2 12 -8 20 -13 17 -5 -3 -12 0 -15 6 -5
7 0 10 11 7 12 -2 20 -13 21 -28z m-1439 -20 c7 -11 8 -20 3 -20 -5 0 -11 6
-14 13 -4 10 -7 10 -18 0 -21 -21 -34 -15 -14 7 10 11 21 20 24 20 3 0 12 -9
19 -20z m1136 5 c-7 -17 -20 -20 -28 -6 -7 10 3 21 20 21 8 0 11 -6 8 -15z
m50 -22 c-1 -20 -6 -39 -12 -41 -7 -2 -10 12 -9 37 1 23 7 41 12 41 6 0 10
-17 9 -37z m236 33 c0 -3 -4 -8 -10 -11 -5 -3 -10 -1 -10 4 0 6 5 11 10 11 6
0 10 -2 10 -4z m-885 -16 c3 -5 1 -10 -4 -10 -6 0 -11 5 -11 10 0 6 2 10 4 10
3 0 8 -4 11 -10z m882 -16 c-3 -3 -12 -4 -19 -1 -8 3 -5 6 6 6 11 1 17 -2 13
-5z m-1900 -41 c-3 -10 -5 -4 -5 12 0 17 2 24 5 18 2 -7 2 -21 0 -30z m338 27
c3 -5 -1 -10 -9 -10 -9 0 -16 5 -16 10 0 6 4 10 9 10 6 0 13 -4 16 -10z m345
0 c0 -5 -4 -10 -10 -10 -5 0 -10 5 -10 10 0 6 5 10 10 10 6 0 10 -4 10 -10z
m820 6 c0 -3 -4 -8 -10 -11 -5 -3 -10 -1 -10 4 0 6 5 11 10 11 6 0 10 -2 10
-4z m-1244 -39 c16 -9 19 -37 5 -37 -5 0 -12 8 -15 17 -6 15 -8 15 -16 3 -8
-12 -10 -12 -16 3 -3 9 0 24 7 33 11 13 14 13 18 3 2 -8 10 -18 17 -22z m1754
13 c-8 -5 -17 -7 -19 -4 -3 3 1 9 9 14 8 5 17 7 19 4 3 -3 -1 -9 -9 -14z
m-1060 0 c0 -5 -2 -10 -4 -10 -3 0 -8 5 -11 10 -3 6 -1 10 4 10 6 0 11 -4 11
-10z m-1015 -35 c18 -7 18 -9 2 -12 -9 -3 -15 -9 -12 -14 4 -5 3 -14 -1 -21
-5 -8 -10 -6 -15 8 -10 25 -11 72 -1 58 4 -6 16 -14 27 -19z m113 -2 c-5 -25
-28 -28 -28 -4 0 12 6 21 16 21 9 0 14 -7 12 -17z m38 -29 c-3 -9 -6 -20 -6
-26 0 -6 -6 -6 -15 2 -11 9 -12 15 -2 25 16 19 30 19 23 -1z m2384 -64 c0 -5
-4 -10 -10 -10 -5 0 -10 5 -10 10 0 6 5 10 10 10 6 0 10 -4 10 -10z m17 -52
c-3 -8 -6 -5 -6 6 -1 11 2 17 5 13 3 -3 4 -12 1 -19z m-3297 -108 c0 -5 -7 -7
-15 -4 -8 4 -15 8 -15 10 0 2 7 4 15 4 8 0 15 -4 15 -10z m3367 -32 c-3 -8 -6
-5 -6 6 -1 11 2 17 5 13 3 -3 4 -12 1 -19z m53 3 c0 -5 -7 -14 -15 -21 -12
-10 -15 -10 -15 2 0 8 3 18 7 21 9 10 23 9 23 -2z m133 -17 c3 -3 1 -17 -5
-30 -8 -18 -14 -21 -20 -12 -19 30 2 65 25 42z m-3580 -21 c-7 -2 -19 -2 -25
0 -7 3 -2 5 12 5 14 0 19 -2 13 -5z m-142 -13 c5 0 9 -7 9 -15 0 -11 -11 -15
-40 -15 -39 0 -39 1 -22 19 9 11 23 17 30 15 8 -2 18 -4 23 -4z m-171 -12 c0
-6 7 -20 17 -30 15 -17 15 -18 -5 -18 -23 0 -42 27 -35 48 6 15 23 16 23 0z
m288 1 c-2 -6 -8 -10 -13 -10 -5 0 -11 4 -13 10 -2 6 4 11 13 11 9 0 15 -5 13
-11z m3777 -9 c-3 -5 -11 -10 -16 -10 -6 0 -7 5 -4 10 3 6 11 10 16 10 6 0 7
-4 4 -10z m-135 -14 c0 -17 -14 -29 -23 -20 -8 8 3 34 14 34 5 0 9 -6 9 -14z
m97 -62 c-3 -3 -13 0 -21 9 -8 8 -12 18 -9 21 4 4 14 0 22 -9 8 -8 12 -17 8
-21z m-4047 -193 c0 -12 -20 -25 -27 -18 -7 7 6 27 18 27 5 0 9 -4 9 -9z
m4375 -61 c3 -5 1 -10 -4 -10 -6 0 -11 5 -11 10 0 6 2 10 4 10 3 0 8 -4 11
-10z m112 -46 c-3 -3 -12 -4 -19 -1 -8 3 -5 6 6 6 11 1 17 -2 13 -5z m-106
-59 c18 -6 23 -28 6 -26 -4 1 -13 1 -21 1 -16 0 -25 28 -17 50 4 12 6 12 9 -2
2 -9 12 -20 23 -23z m-133 13 c-7 -19 -38 -22 -38 -4 0 10 9 16 21 16 12 0 19
-5 17 -12z m-68 -23 c0 -8 -9 -15 -20 -15 -11 0 -20 7 -20 15 0 8 9 15 20 15
11 0 20 -7 20 -15z m305 -165 c-3 -5 -10 -10 -16 -10 -5 0 -9 5 -9 10 0 6 7
10 16 10 8 0 12 -4 9 -10z"/>
<path d="M2565 4450 c-3 -5 -1 -10 4 -10 6 0 11 5 11 10 0 6 -2 10 -4 10 -3 0
-8 -4 -11 -10z"/>
<path d="M2340 4415 c0 -14 5 -25 10 -25 6 0 10 11 10 25 0 14 -4 25 -10 25
-5 0 -10 -11 -10 -25z"/>
<path d="M2607 4380 c5 -20 43 -29 43 -10 0 6 0 13 0 17 0 4 -10 8 -24 10 -20
3 -23 0 -19 -17z"/>
<path d="M2975 4390 c-3 -5 1 -10 10 -10 9 0 13 5 10 10 -3 6 -8 10 -10 10 -2
0 -7 -4 -10 -10z"/>
<path d="M3025 4391 c-3 -5 -1 -12 5 -16 5 -3 10 1 10 9 0 18 -6 21 -15 7z"/>
<path d="M1543 4373 c9 -2 23 -2 30 0 6 3 -1 5 -18 5 -16 0 -22 -2 -12 -5z"/>
<path d="M2481 4364 c0 -11 3 -14 6 -6 3 7 2 16 -1 19 -3 4 -6 -2 -5 -13z"/>
<path d="M2881 4344 c0 -11 3 -14 6 -6 3 7 2 16 -1 19 -3 4 -6 -2 -5 -13z"/>
<path d="M1985 4330 c-3 -5 -1 -10 4 -10 6 0 11 5 11 10 0 6 -2 10 -4 10 -3 0
-8 -4 -11 -10z"/>
<path d="M1351 4314 c0 -11 3 -14 6 -6 3 7 2 16 -1 19 -3 4 -6 -2 -5 -13z"/>
<path d="M3293 4293 c-22 -8 -14 -23 12 -23 16 0 25 6 25 15 0 15 -14 18 -37
8z"/>
<path d="M1250 4250 c0 -5 7 -10 15 -10 8 0 15 5 15 10 0 6 -7 10 -15 10 -8 0
-15 -4 -15 -10z"/>
<path d="M935 4230 c3 -5 10 -10 16 -10 5 0 9 5 9 10 0 6 -7 10 -16 10 -8 0
-12 -4 -9 -10z"/>
<path d="M1060 4079 c0 -5 5 -7 10 -4 6 3 10 8 10 11 0 2 -4 4 -10 4 -5 0 -10
-5 -10 -11z"/>
<path d="M576 4025 c4 -8 10 -12 15 -9 14 8 10 24 -6 24 -9 0 -12 -6 -9 -15z"/>
<path d="M3800 4000 c0 -13 5 -20 13 -17 6 2 12 10 12 17 0 7 -6 15 -12 18 -8
2 -13 -5 -13 -18z"/>
<path d="M562 3953 c2 -9 9 -18 16 -21 18 -6 15 25 -4 32 -11 4 -14 1 -12 -11z"/>
<path d="M461 3944 c6 -8 15 -11 20 -9 4 3 11 -11 15 -32 l7 -38 9 34 c9 31
10 32 23 15 13 -18 14 -17 15 14 0 22 -5 32 -15 32 -8 0 -15 -6 -15 -12 0 -9
-2 -10 -8 -2 -4 7 -19 12 -35 12 -22 0 -25 -3 -16 -14z"/>
<path d="M160 3934 c0 -8 5 -12 10 -9 6 4 8 11 5 16 -9 14 -15 11 -15 -7z"/>
<path d="M196 3913 c-9 -9 -7 -33 3 -33 12 0 22 28 12 34 -5 3 -11 3 -15 -1z"/>
<path d="M388 3878 c4 -28 6 -30 12 -13 8 21 3 45 -9 45 -4 0 -5 -15 -3 -32z"/>
<path d="M160 3876 c0 -13 7 -27 16 -30 14 -5 14 -9 3 -22 -11 -14 -10 -15 11
-12 34 5 34 42 -2 68 l-28 21 0 -25z"/>
<path d="M440 3881 c0 -6 5 -13 10 -16 6 -3 10 1 10 9 0 9 -4 16 -10 16 -5 0
-10 -4 -10 -9z"/>
<path d="M3887 3873 c-11 -10 -8 -43 3 -43 6 0 10 11 10 25 0 26 -2 29 -13 18z"/>
<path d="M3930 3848 c0 -13 5 -30 10 -38 7 -11 10 -7 10 17 0 17 -4 35 -10 38
-6 3 -10 -4 -10 -17z"/>
<path d="M4060 3825 c0 -9 6 -12 15 -9 8 4 12 10 9 15 -8 14 -24 10 -24 -6z"/>
<path d="M465 3810 c-3 -5 1 -10 9 -10 9 0 16 5 16 10 0 6 -4 10 -9 10 -6 0
-13 -4 -16 -10z"/>
<path d="M3865 3760 c3 -5 10 -10 16 -10 5 0 9 5 9 10 0 6 -7 10 -16 10 -8 0
-12 -4 -9 -10z"/>
<path d="M3205 3740 c-4 -6 -3 -10 2 -10 4 0 1 -5 -7 -10 -13 -9 -12 -13 6
-28 21 -18 26 -54 9 -69 -4 -5 -5 -2 -1 5 4 7 1 12 -8 12 -9 0 -16 -4 -16 -9
0 -5 -3 -18 -6 -28 -3 -10 -2 -14 3 -8 12 14 43 18 43 5 0 -6 -4 -8 -10 -5 -5
3 -10 1 -10 -4 0 -6 5 -11 10 -11 6 0 10 -5 10 -11 0 -6 -7 -8 -16 -5 -12 5
-14 1 -9 -15 5 -15 3 -20 -6 -17 -15 5 -39 -14 -39 -31 0 -6 -4 -11 -10 -11
-5 0 -10 5 -10 10 0 6 -5 10 -11 10 -8 0 -8 -4 0 -14 10 -12 8 -19 -8 -35 -12
-12 -21 -28 -21 -36 0 -8 -5 -15 -11 -15 -5 0 -8 -4 -5 -9 3 -5 -3 -11 -14
-14 -13 -3 -18 -1 -13 6 4 6 0 8 -10 4 -11 -4 -17 -1 -17 8 0 7 -5 17 -10 20
-12 7 -4 -51 8 -70 4 -5 7 -22 6 -37 -1 -30 13 -38 22 -13 4 8 10 15 15 15 5
0 9 -7 9 -15 0 -8 5 -15 10 -15 6 0 10 4 10 9 0 17 34 22 42 6 5 -8 13 -13 19
-10 5 4 12 -1 15 -9 3 -9 10 -14 14 -11 5 3 11 1 15 -5 3 -5 -1 -10 -9 -10 -9
0 -16 -4 -16 -10 0 -5 2 -10 4 -10 2 0 12 -3 22 -7 12 -4 15 -3 10 5 -4 7 -2
12 3 12 6 0 11 -5 11 -11 0 -6 13 -8 30 -5 16 2 32 0 36 -5 8 -14 26 -11 19 4
-4 6 -1 5 7 -4 7 -9 19 -14 26 -12 6 3 12 0 12 -6 0 -20 17 -11 28 14 7 16 17
23 27 19 10 -4 15 0 15 15 0 15 -6 21 -22 21 -16 0 -19 3 -11 11 9 9 6 16 -10
29 -18 15 -19 20 -8 34 7 9 18 13 23 10 7 -4 6 -9 -1 -13 -7 -5 -1 -17 19 -34
18 -16 27 -33 24 -42 -6 -15 7 -21 18 -9 9 8 -25 63 -42 68 -11 3 -9 6 8 11
12 4 22 11 22 16 0 5 9 9 20 9 24 0 26 -13 5 -30 -16 -13 -20 -40 -6 -40 7 0
30 15 71 47 2 2 -2 8 -10 13 -13 8 -12 10 3 10 10 0 17 -8 17 -19 0 -11 5 -23
10 -26 15 -10 12 -23 -7 -28 -10 -3 -3 -5 15 -6 l32 -1 0 58 c0 45 -4 61 -20
75 -29 24 -25 32 23 47 23 7 36 15 29 17 -7 3 -27 -1 -43 -8 -35 -14 -45 -6
-55 43 -4 17 -20 35 -42 49 -34 20 -37 20 -49 3 -11 -16 -13 -16 -13 -2 0 9
-5 20 -10 23 -7 4 -9 -9 -5 -37 4 -41 4 -42 -6 -12 -6 18 -22 37 -35 43 -33
15 -30 32 12 61 20 13 31 26 24 28 -6 2 -25 -5 -41 -17 -38 -28 -47 -27 -66
14 -11 23 -25 36 -45 40 -15 4 -26 10 -23 15 3 4 -2 10 -10 14 -8 3 -17 1 -20
-4z m59 -125 c3 -8 1 -15 -3 -15 -5 0 -11 7 -15 15 -3 8 -1 15 3 15 5 0 11 -7
15 -15z m49 -62 c3 -5 1 -17 -4 -28 -4 -11 -8 -15 -9 -10 -1 6 -3 18 -5 28 -3
17 10 24 18 10z m-47 -18 c-21 -16 -21 -17 9 -33 20 -11 20 -11 -2 -12 -23 0
-36 14 -38 42 -1 13 6 18 24 18 25 -1 25 -1 7 -15z m204 -41 c0 -12 -5 -26
-12 -30 -6 -4 -8 -3 -5 3 3 5 0 21 -7 35 -12 23 -12 25 5 21 12 -3 19 -14 19
-29z m-280 -16 c0 -16 -3 -19 -11 -11 -6 6 -8 16 -5 22 11 17 16 13 16 -11z
m240 18 c0 -3 -4 -8 -10 -11 -5 -3 -10 -1 -10 4 0 6 5 11 10 11 6 0 10 -2 10
-4z m-75 -27 c-4 -5 -13 -9 -21 -9 -16 0 -19 -16 -4 -25 12 -8 13 -35 1 -35
-17 0 -20 54 -4 72 16 17 39 15 28 -3z m-125 -24 c6 -8 10 -20 8 -26 -2 -6
-12 0 -21 15 -18 27 -8 37 13 11z m-80 -12 c0 -8 -5 -13 -12 -11 -18 6 -21 25
-3 25 8 0 15 -7 15 -14z m268 -1 c2 -8 -2 -10 -14 -5 -11 4 -15 3 -11 -4 4 -6
1 -13 -7 -16 -10 -4 -12 0 -9 14 4 14 1 18 -10 13 -8 -3 -18 0 -22 6 -5 8 4
10 31 8 21 -2 39 -9 42 -16z m52 -29 c0 -6 -27 -33 -34 -33 -5 0 -2 31 3 47 2
4 31 -9 31 -14z m-302 0 c18 -4 20 -8 10 -14 -10 -7 -10 -9 0 -9 6 0 12 -7 12
-15 0 -8 4 -15 10 -15 5 0 12 -11 16 -25 3 -14 12 -25 20 -25 16 0 18 -9 5
-29 -7 -11 -10 -9 -16 8 -3 11 -11 21 -17 21 -5 0 -8 6 -5 13 8 22 -26 54 -56
53 -26 -2 -27 -1 -10 12 15 11 16 14 3 22 -17 11 -5 12 28 3z m342 -9 c0 -8
-4 -12 -10 -9 -5 3 -10 10 -10 16 0 5 5 9 10 9 6 0 10 -7 10 -16z m-253 -26
c-3 -8 -6 -5 -6 6 -1 11 2 17 5 13 3 -3 4 -12 1 -19z m-171 -10 c-1 -26 -36
-39 -36 -14 0 9 -6 17 -12 17 -7 1 1 5 17 9 17 4 31 8 31 9 1 0 1 -9 0 -21z
m88 -30 c-7 -11 -34 3 -34 18 0 12 4 12 19 2 11 -7 18 -15 15 -20z m170 -81
c5 -21 4 -21 -14 3 -23 29 -26 48 -6 31 8 -6 16 -22 20 -34z m-70 18 c3 -8 1
-15 -4 -15 -6 0 -10 7 -10 15 0 8 2 15 4 15 2 0 6 -7 10 -15z"/>
<path d="M3060 3350 c0 -5 5 -10 11 -10 5 0 7 5 4 10 -3 6 -8 10 -11 10 -2 0
-4 -4 -4 -10z"/>
<path d="M4065 3729 c-4 -6 -5 -13 -2 -16 7 -7 27 6 27 18 0 12 -17 12 -25 -2z"/>
<path d="M3055 3720 c3 -5 10 -10 16 -10 5 0 9 5 9 10 0 6 -7 10 -16 10 -8 0
-12 -4 -9 -10z"/>
<path d="M3108 3709 c15 -16 16 -33 0 -23 -6 4 -8 3 -5 -4 6 -8 47 -6 47 3 0
1 -12 11 -27 20 -16 10 -22 12 -15 4z"/>
<path d="M153 3681 c-10 -15 -8 -23 9 -41 13 -14 24 -18 30 -12 13 13 2 32
-18 32 -8 0 -14 5 -14 10 0 6 7 10 15 10 8 0 15 5 15 10 0 17 -25 11 -37 -9z"/>
<path d="M2110 3685 c0 -8 2 -15 4 -15 2 0 6 7 10 15 3 8 1 15 -4 15 -6 0 -10
-7 -10 -15z"/>
<path d="M2219 3685 c-1 -3 -2 -17 -4 -32 -1 -16 -3 -34 -6 -42 -2 -7 2 -16 9
-18 8 -3 12 10 12 46 0 28 -2 51 -5 51 -3 0 -6 -2 -6 -5z"/>
<path d="M3156 3672 c-3 -6 1 -13 10 -16 23 -9 28 -2 10 13 -8 7 -17 8 -20 3z"/>
<path d="M0 3655 c0 -9 7 -18 15 -21 8 -4 15 -10 15 -15 0 -5 -7 -9 -15 -9
-11 0 -15 -12 -15 -50 0 -38 4 -50 15 -50 8 0 15 5 15 10 0 12 10 13 30 1 8
-6 14 -22 15 -38 0 -26 3 -28 43 -31 37 -3 42 -1 42 18 0 12 -4 18 -10 15 -5
-3 -10 1 -10 9 0 10 -9 16 -25 16 -34 0 -43 26 -22 62 14 24 14 33 4 48 -6 11
-19 20 -27 20 -8 0 -24 7 -34 15 -25 19 -36 19 -36 0z m80 -75 c0 -5 -4 -10
-10 -10 -5 0 -10 5 -10 10 0 6 5 10 10 10 6 0 10 -4 10 -10z"/>
<path d="M2120 3652 c0 -7 -12 -23 -26 -36 -23 -19 -25 -25 -15 -43 15 -29 14
-56 -1 -47 -10 5 -10 4 -1 -6 15 -16 6 -40 -13 -33 -17 6 -46 58 -38 66 4 3
-1 16 -10 28 -13 20 -16 20 -22 6 -8 -21 -18 -21 -38 -2 -13 14 -16 13 -25 -2
-12 -21 -71 -26 -71 -6 0 21 -28 15 -35 -7 -7 -23 -35 -27 -35 -5 0 8 -4 15
-9 15 -5 0 -11 -7 -15 -15 -3 -8 -15 -15 -26 -15 -11 0 -20 -4 -20 -10 0 -14
37 -13 42 2 2 6 14 -4 27 -23 22 -34 23 -34 16 -6 -4 19 -2 26 5 22 15 -9 12
-41 -4 -54 -11 -9 -17 -6 -27 18 -10 22 -17 27 -26 19 -7 -6 -10 -14 -7 -19 3
-5 -2 -9 -10 -9 -9 0 -16 4 -16 8 0 5 -14 9 -31 9 -27 0 -30 -3 -26 -24 4 -19
1 -23 -12 -18 -9 4 -22 10 -30 13 -9 3 -12 1 -7 -6 3 -6 -3 -16 -14 -22 -11
-6 -20 -17 -20 -25 0 -13 -12 -19 -32 -16 -4 0 -5 -5 -2 -13 3 -7 17 -13 31
-13 14 0 29 -6 33 -12 4 -7 25 -18 46 -26 l39 -13 -30 -8 c-27 -7 -21 -10 50
-23 63 -13 81 -20 83 -35 3 -11 0 -16 -7 -12 -6 4 -11 2 -11 -5 0 -7 -10 -9
-24 -7 -27 5 -26 -16 0 -26 9 -3 12 -1 9 4 -3 6 -4 10 0 10 3 0 10 -10 15 -22
7 -19 9 -19 9 -5 1 11 6 15 12 11 6 -3 15 -1 19 6 14 22 32 2 19 -22 -9 -17
-13 -18 -20 -7 -5 8 -9 10 -9 4 1 -5 7 -19 15 -29 18 -24 87 -25 130 -2 37 20
45 20 45 1 0 -9 7 -18 15 -21 11 -5 13 -10 5 -19 -8 -9 -7 -15 2 -18 7 -3 2
-4 -11 -3 -14 2 -27 8 -29 14 -2 7 -8 10 -13 6 -5 -3 -9 0 -9 7 0 9 -3 9 -14
0 -8 -7 -25 -9 -42 -5 -23 6 -26 4 -21 -9 7 -19 -30 -33 -63 -24 -13 3 -20 0
-20 -9 0 -11 -4 -12 -19 -4 -11 5 -27 7 -35 4 -9 -3 -16 -2 -16 4 0 6 -10 8
-22 4 -14 -3 -19 -1 -14 6 4 7 2 20 -4 29 -11 17 -11 17 -6 1 7 -22 -10 -24
-18 -3 -12 32 -22 13 -19 -35 2 -41 0 -50 -13 -50 -13 0 -15 -7 -11 -29 4 -20
2 -31 -8 -35 -10 -3 -12 0 -8 11 4 11 2 14 -8 11 -8 -3 -14 -17 -14 -32 1 -18
-3 -25 -13 -21 -7 3 -18 5 -23 5 -14 0 -11 17 6 34 19 19 3 31 -23 17 -19 -10
-62 -4 -62 8 0 4 -7 16 -15 27 -13 16 -14 16 -9 2 3 -10 2 -18 -4 -18 -6 0
-12 4 -14 10 -4 12 -48 1 -48 -12 0 -6 7 -7 16 -4 17 7 104 -28 104 -41 0 -5
-5 -14 -11 -20 -9 -9 -5 -14 17 -20 16 -4 33 -7 37 -8 4 0 11 -4 15 -10 4 -5
15 -10 25 -11 51 -2 53 -4 52 -36 0 -32 -1 -33 -45 -33 -31 0 -44 4 -43 13 2
6 -3 12 -11 12 -8 0 -17 6 -19 13 -3 7 -6 5 -6 -5 -1 -10 -6 -18 -12 -18 -20
0 2 -20 24 -21 16 -1 17 -3 5 -6 -10 -2 -15 -10 -11 -19 4 -11 -2 -13 -26 -8
-20 4 -31 3 -31 -5 0 -6 6 -11 14 -11 8 0 18 -4 21 -10 3 -5 0 -7 -9 -4 -8 3
-23 0 -33 -6 -14 -9 -14 -10 -2 -7 17 6 39 -10 39 -26 0 -5 -7 -3 -17 4 -9 8
-18 13 -20 12 -2 -2 -17 -10 -33 -18 -17 -9 -30 -20 -30 -26 0 -6 -5 -7 -11
-3 -8 4 -9 0 -4 -15 5 -16 3 -20 -9 -15 -11 4 -16 0 -16 -15 0 -12 5 -21 10
-21 6 0 10 -7 10 -15 0 -8 6 -15 14 -15 8 0 16 -7 20 -15 3 -8 1 -15 -4 -15
-6 0 -10 5 -10 11 0 6 -7 8 -16 5 -10 -4 -25 1 -36 10 -10 10 -21 14 -26 9 -4
-4 -1 -10 6 -12 6 -3 12 -11 12 -18 0 -9 15 -15 38 -18 l37 -4 -39 -1 c-29 -2
-37 -6 -33 -16 3 -8 1 -17 -6 -19 -7 -2 16 -3 51 -2 48 1 62 -1 58 -11 -3 -7
0 -15 7 -18 7 -3 2 -3 -11 0 -19 5 -23 1 -28 -25 -4 -17 -11 -31 -16 -31 -6 0
-7 11 -4 26 6 24 5 26 -16 20 -13 -3 -29 -6 -35 -6 -7 0 -13 -4 -13 -10 0 -5
7 -10 15 -10 8 0 15 -5 15 -11 0 -5 5 -7 10 -4 6 3 10 -1 10 -9 0 -20 -19 -21
-26 -1 -7 18 -25 20 -21 3 1 -7 -6 -12 -15 -12 -9 1 -14 -4 -12 -10 2 -6 22
-11 43 -11 22 0 37 3 34 8 -2 4 8 12 22 17 36 14 44 12 22 -5 -18 -13 -18 -14
2 -24 26 -15 26 -14 28 11 1 13 7 24 13 26 6 2 17 10 25 19 13 13 15 13 15 -1
0 -9 -6 -16 -14 -16 -8 0 -18 -4 -21 -10 -10 -15 44 7 63 27 16 16 16 16 0 10
-10 -3 -18 -2 -18 3 0 6 3 10 8 11 4 0 18 3 32 5 14 3 44 6 67 6 24 0 40 4 38
8 -3 4 2 14 11 21 13 10 17 10 25 -2 6 -10 9 -10 9 -1 0 6 9 12 20 12 13 0 20
-7 20 -20 0 -26 -25 -36 -45 -20 -13 11 -14 10 -9 -4 3 -9 2 -16 -4 -16 -5 0
-12 -7 -16 -15 -3 -8 0 -14 7 -12 7 1 11 -6 9 -15 -4 -27 17 -21 28 7 5 14 16
28 25 31 8 3 13 10 10 14 -8 13 16 23 27 12 10 -10 -4 -50 -16 -44 -3 1 -7 -1
-8 -5 0 -5 -8 -13 -16 -19 -9 -7 -12 -16 -7 -24 5 -8 4 -11 -2 -7 -6 4 -19 0
-29 -8 -24 -18 -48 -20 -38 -2 4 6 4 9 -1 5 -4 -4 -15 -2 -23 5 -11 8 -14 8
-9 0 4 -6 4 -14 -1 -17 -5 -3 -8 12 -8 32 1 29 -4 40 -23 50 -20 10 -26 10
-36 -5 -10 -13 -10 -20 -2 -25 6 -4 8 -10 4 -14 -3 -4 -14 -1 -23 7 -15 12
-17 12 -12 -1 9 -25 -11 -50 -40 -51 -27 -1 -27 -1 4 -8 36 -9 54 -19 54 -30
0 -12 -39 -21 -46 -10 -3 5 -10 9 -15 9 -6 0 -7 -4 -4 -10 3 -6 -4 -10 -16
-10 -12 0 -20 -3 -16 -6 3 -4 24 -6 46 -6 22 0 43 -4 46 -9 4 -5 12 -6 18 -3
8 5 9 4 2 -4 -18 -19 -88 -19 -107 1 -21 20 -42 23 -36 5 3 -7 24 -22 47 -33
23 -11 39 -23 36 -27 -4 -4 3 -4 16 -1 15 4 20 3 15 -5 -5 -8 3 -12 23 -12 17
0 31 4 31 10 0 12 22 9 33 -5 5 -6 7 -3 4 7 -7 21 3 31 19 17 8 -7 14 -7 19 1
3 5 11 10 16 10 6 0 8 -4 5 -8 -3 -5 1 -9 9 -9 8 0 17 7 20 15 3 8 12 11 20 8
8 -3 15 -2 15 3 0 5 9 11 20 14 11 3 20 10 20 17 0 6 -5 8 -11 4 -9 -5 -10 1
-5 22 4 17 3 24 -2 16 -4 -6 -17 -19 -28 -28 -17 -14 -17 -15 -1 -10 11 4 16
2 12 -5 -4 -6 -13 -8 -21 -5 -8 3 -17 -1 -20 -9 -4 -8 -18 -15 -33 -15 -20 0
-22 3 -11 9 8 6 18 7 22 5 4 -3 8 -1 8 5 0 5 -16 8 -36 7 -38 -4 -59 -16 -28
-16 12 -1 7 -6 -16 -16 -19 -8 -37 -18 -40 -23 -3 -4 -18 -2 -35 5 -24 10 -27
14 -13 19 9 4 22 4 27 0 6 -3 16 3 23 15 7 11 20 20 30 20 9 0 20 5 24 11 4 8
0 9 -15 4 -12 -4 -21 -2 -21 4 0 6 7 11 15 11 8 0 19 9 25 20 6 11 16 20 23
20 9 0 9 -2 0 -8 -11 -7 -16 -26 -14 -50 1 -10 6 -10 21 -2 11 6 25 8 30 5 5
-3 28 8 50 24 49 35 41 44 -18 21 -34 -13 -40 -18 -30 -29 11 -11 9 -11 -10
-2 -18 10 -21 15 -12 26 7 8 21 17 33 21 28 9 54 34 35 34 -7 1 -3 9 10 20 17
14 32 18 54 13 20 -4 33 -1 38 8 5 7 12 10 16 6 11 -10 -44 -57 -67 -57 -16 0
-18 -2 -7 -14 7 -8 16 -12 21 -9 12 7 8 -6 -9 -32 -9 -14 -12 -25 -6 -25 5 0
13 7 16 16 4 9 9 14 12 11 4 -3 -3 -21 -15 -40 -11 -19 -21 -38 -21 -41 0 -12
24 17 39 46 8 15 18 25 23 22 4 -3 8 4 8 15 0 23 16 36 25 21 4 -6 1 -18 -6
-26 -10 -13 -10 -17 1 -24 10 -6 8 -11 -9 -21 -25 -16 -27 -29 -6 -29 8 0 15
4 15 10 0 16 42 60 57 60 8 0 12 4 9 9 -3 5 -14 7 -25 4 -26 -7 -36 24 -9 33
12 3 24 1 28 -6 5 -8 10 -9 14 -2 3 6 0 13 -6 15 -8 3 -5 6 6 6 13 1 17 6 13
20 -3 14 2 20 19 24 28 5 31 -5 8 -27 -8 -9 -11 -16 -5 -16 8 0 7 -6 -1 -19
-7 -11 -15 -18 -18 -16 -3 2 -6 -5 -6 -16 0 -16 5 -13 25 13 14 17 32 46 41
62 12 26 22 31 53 33 34 2 40 -1 51 -27 9 -23 15 -27 24 -18 9 9 12 9 12 -1 0
-7 5 -9 10 -6 6 3 10 0 11 -7 0 -7 2 -26 4 -43 4 -29 3 -29 -12 -10 -14 18
-15 18 -9 2 3 -10 6 -23 6 -28 0 -4 7 -6 15 -3 8 4 15 13 15 21 0 8 5 11 12 7
7 -4 8 -3 4 5 -4 6 -11 9 -16 6 -12 -7 -10 35 3 62 l10 22 26 -20 c18 -14 26
-31 27 -57 1 -20 5 -48 8 -62 3 -14 11 -63 17 -110 9 -75 8 -97 -13 -197 -22
-111 -24 -114 -53 -122 -18 -5 -35 -4 -43 2 -8 7 -18 2 -32 -16 -11 -14 -31
-29 -43 -32 -40 -12 -107 -48 -107 -58 0 -5 -11 -18 -25 -29 -14 -11 -25 -24
-25 -31 0 -6 13 2 29 17 21 20 35 26 50 21 15 -5 19 -3 15 8 -2 7 2 20 11 27
15 12 20 5 16 -22 0 -4 6 -5 15 -1 10 4 17 -2 21 -16 3 -11 9 -21 14 -21 16 0
10 -26 -11 -50 -11 -13 -20 -31 -20 -42 0 -24 32 -23 48 2 7 11 17 20 22 20
16 0 11 -32 -7 -53 -18 -19 -27 -121 -11 -111 5 3 8 19 8 35 0 17 5 40 11 51
11 21 12 21 25 -3 l13 -24 1 26 c0 14 -4 29 -9 35 -13 12 17 74 36 74 10 0 13
6 9 16 -3 8 -2 12 4 9 6 -3 10 1 10 9 0 9 5 16 10 16 6 0 10 -5 10 -11 0 -5 4
-8 10 -4 5 3 7 12 4 20 -4 8 -10 12 -15 9 -5 -3 -9 0 -9 5 0 6 4 11 9 11 5 0
18 17 28 37 22 45 43 55 43 19 0 -13 5 -28 10 -31 6 -3 10 -14 10 -25 0 -20
21 -32 38 -21 8 5 8 13 -2 32 -18 36 -25 68 -16 74 5 3 26 -1 46 -10 43 -18
58 -19 49 -4 -8 12 30 -8 58 -31 10 -8 32 -13 47 -12 34 4 107 -27 90 -38 -7
-4 -11 -10 -11 -14 4 -27 -1 -46 -11 -46 -22 -1 -58 -37 -58 -59 0 -12 -4 -21
-10 -21 -5 0 -10 7 -10 16 0 8 -4 12 -10 9 -6 -3 -7 1 -4 9 3 9 11 16 18 17
18 1 -47 28 -70 29 -12 0 -33 -16 -52 -39 -34 -42 -41 -67 -18 -58 8 3 20 -1
26 -9 19 -22 29 -17 25 15 -4 33 16 68 34 57 8 -6 9 -12 2 -20 -13 -16 -4 -26
22 -26 18 0 17 -2 -4 -20 -21 -18 -22 -19 -4 -14 17 6 16 4 -3 -11 -29 -21
-71 -23 -83 -4 -6 11 -9 9 -9 -8 0 -12 3 -23 8 -26 4 -2 1 -2 -5 -1 -7 2 -32
-6 -55 -16 -24 -11 -35 -20 -25 -20 10 0 17 -8 17 -20 0 -16 -7 -20 -30 -20
-25 0 -30 -4 -30 -24 0 -13 8 -27 17 -30 14 -6 14 -8 -5 -22 -12 -8 -22 -21
-22 -28 0 -7 -13 -22 -30 -34 -41 -30 -40 -89 1 -128 26 -25 33 -26 113 -25
85 2 86 1 86 -22 0 -14 7 -30 15 -37 22 -19 28 -48 12 -65 -12 -12 -13 -20 -3
-47 23 -65 29 -71 67 -60 40 11 89 52 89 75 0 8 11 18 25 21 21 5 25 12 25 43
0 26 9 47 33 77 44 54 54 79 28 71 -22 -7 -71 33 -71 59 0 9 -4 16 -8 16 -5 0
-14 11 -20 25 -9 18 -8 23 1 19 14 -6 67 -80 67 -94 0 -23 55 6 69 37 14 30
14 33 -1 33 -22 1 -62 36 -49 44 6 4 11 3 11 -3 0 -5 19 -14 43 -18 36 -7 44
-13 54 -43 11 -33 12 -32 12 38 1 72 -20 149 -74 276 -31 72 -127 181 -169
192 -14 3 -26 10 -26 15 0 5 -7 9 -16 9 -9 0 -29 11 -46 25 -20 17 -42 25 -67
25 -30 0 -43 7 -70 37 l-32 36 5 111 5 111 46 2 c32 1 43 -2 38 -10 -3 -7 -2
-8 2 -4 5 4 10 14 11 21 1 10 -10 12 -46 9 -26 -2 -50 -1 -53 4 -3 5 -9 36
-12 70 -7 54 -5 63 14 82 12 12 34 21 50 21 17 0 33 5 36 10 4 6 12 10 18 8 7
-1 23 2 36 6 15 5 27 4 35 -4 8 -10 6 -12 -11 -7 -16 3 -23 1 -23 -9 0 -8 -6
-14 -12 -14 -9 0 -10 -3 -2 -8 6 -4 14 -14 17 -22 3 -9 6 -4 6 11 1 22 7 28
31 31 23 3 27 2 19 -8 -7 -8 -7 -14 1 -19 5 -3 10 -1 10 5 0 26 107 -15 116
-44 3 -10 9 -14 13 -9 3 6 13 10 21 10 8 0 27 4 42 8 21 5 29 3 34 -9 3 -9 14
-16 25 -16 10 0 24 -8 31 -18 17 -25 48 -36 48 -18 0 8 -20 24 -45 36 -52 25
-54 45 -7 45 29 1 36 -6 34 -26 -2 -9 40 1 56 14 9 7 24 4 50 -9 44 -22 52
-32 44 -52 -4 -12 1 -14 22 -10 14 3 29 2 31 -2 3 -5 14 -6 25 -3 11 3 17 10
13 17 -4 6 1 4 12 -4 16 -13 16 -15 2 -18 -17 -4 -22 -14 -11 -25 4 -3 13 0
21 8 8 8 25 15 39 15 13 0 24 4 24 9 0 6 -12 9 -26 8 -37 -3 -42 21 -7 28 53
12 60 16 38 24 -12 5 -31 1 -53 -12 -18 -11 -36 -17 -39 -13 -3 3 2 8 11 12 9
3 16 10 16 16 0 5 -5 6 -12 2 -7 -5 -9 0 -6 14 3 12 1 23 -6 25 -6 2 -8 8 -4
12 4 4 14 2 23 -5 9 -8 15 -8 15 -2 0 6 -9 17 -21 26 -15 10 -19 20 -14 35 6
20 5 20 -19 -2 -14 -14 -26 -29 -26 -36 0 -6 -7 -11 -16 -11 -14 0 -14 -3 -4
-15 11 -13 10 -14 -2 -10 -9 4 -18 -1 -22 -10 -3 -10 -1 -15 7 -13 7 2 15 -1
17 -7 3 -5 -3 -11 -12 -13 -12 -2 -19 5 -24 22 -3 14 -10 26 -14 26 -5 0 -12
9 -15 21 -4 11 -9 18 -12 15 -4 -3 -12 -1 -19 4 -6 6 -16 10 -20 9 -11 -3 -46
12 -61 25 -8 8 -7 16 5 30 16 18 16 19 -2 9 -14 -8 -27 -8 -43 0 -18 8 -27 6
-44 -9 -20 -18 -20 -19 -2 -34 21 -17 19 -50 -3 -50 -8 0 -13 3 -13 8 1 4 1
14 0 22 -1 13 -3 13 -11 0 -7 -12 -12 -12 -34 0 -34 18 -33 31 2 28 19 -2 27
2 27 12 0 9 -10 15 -23 16 -13 1 -33 10 -45 22 -12 11 -31 22 -42 24 -11 2
-19 9 -18 15 1 6 4 23 7 38 3 15 12 35 21 45 17 19 83 32 91 18 9 -14 22 -9
27 10 4 13 5 12 6 -5 0 -12 -5 -24 -11 -26 -10 -4 -10 -6 0 -6 7 -1 16 9 21
21 7 19 8 19 14 4 4 -10 5 -22 1 -27 -5 -8 9 -13 29 -10 4 0 7 -3 7 -8 0 -5
13 -22 28 -38 34 -33 55 -70 44 -76 -4 -2 -1 -2 6 -1 14 4 16 -8 2 -22 -6 -6
-6 -15 0 -24 8 -13 10 -12 10 3 0 10 5 15 10 12 6 -3 10 1 10 9 0 9 4 16 9 16
5 0 8 -8 6 -17 -1 -10 0 -12 2 -5 3 7 9 9 15 6 6 -4 5 3 -2 16 -6 12 -9 27 -6
35 4 12 -83 75 -105 75 -6 0 -7 6 -3 13 4 6 4 9 -1 5 -9 -8 -50 40 -42 49 8 8
28 -7 22 -17 -3 -4 2 -11 11 -14 24 -9 31 -7 14 4 -13 8 -12 10 3 10 9 0 17 5
17 12 0 6 9 2 21 -10 19 -21 18 -49 -2 -37 -5 4 -9 1 -9 -5 0 -8 7 -9 18 -5
26 11 61 8 72 -7 12 -15 77 -36 89 -29 18 12 -14 35 -39 28 -13 -3 -20 0 -20
9 0 8 -4 14 -8 14 -5 0 -15 11 -22 25 -7 13 -20 26 -29 29 -9 2 -2 4 14 3 23
-2 29 -6 27 -19 -4 -22 14 -24 22 -3 4 12 14 14 39 10 26 -5 36 -3 40 9 5 12
0 16 -18 16 -13 0 -27 5 -30 10 -5 8 -11 7 -21 -1 -8 -7 -14 -7 -14 -1 0 12
25 23 43 18 6 -3 24 -7 39 -10 16 -4 27 -12 25 -19 -1 -6 6 -12 15 -12 25 0
32 -13 18 -30 -11 -13 -10 -14 2 -10 9 4 18 -1 21 -9 4 -9 14 -16 23 -16 13 0
11 4 -7 21 l-24 20 34 -5 c19 -3 40 -14 48 -24 14 -16 14 -16 9 1 -3 9 -1 17
4 17 6 0 10 -6 10 -12 0 -9 3 -9 8 -2 4 6 15 14 26 17 12 5 16 13 12 24 -4 9
-1 20 6 25 8 4 -4 8 -30 8 -36 0 -45 -4 -49 -20 -6 -22 -19 -25 -58 -10 -23 9
-25 12 -11 25 19 19 27 19 20 0 -4 -8 -2 -15 4 -15 22 0 21 31 -1 40 -19 8
-20 9 -3 9 18 1 18 2 1 21 -19 21 -45 27 -45 10 0 -5 -7 -7 -16 -3 -9 3 -12 9
-7 12 11 7 10 22 0 39 -7 11 3 17 25 13 4 0 4 7 1 16 -4 11 -3 14 5 9 7 -4 17
-4 24 0 8 5 6 10 -7 14 -18 6 -17 8 8 25 15 9 38 18 51 18 18 0 22 4 19 18 -4
13 0 19 10 19 8 0 17 6 20 13 2 6 7 9 11 5 4 -3 2 -17 -5 -30 l-12 -23 27 24
c39 36 21 62 -26 39 -13 -6 -18 -5 -18 7 0 20 -16 19 -24 -1 -3 -8 -2 -12 4
-9 13 8 13 -11 -1 -36 -6 -13 -16 -18 -26 -15 -9 4 -22 1 -29 -5 -7 -6 -19 -9
-26 -6 -8 4 -7 6 5 6 16 1 22 13 18 35 -1 5 6 18 16 29 18 20 18 20 -9 3 -17
-11 -25 -23 -22 -34 4 -13 3 -12 -7 2 -9 15 -9 20 5 28 9 5 13 14 10 20 -4 6
-2 8 4 4 15 -9 27 13 27 52 1 30 -1 32 -12 16 -7 -10 -11 -27 -7 -38 4 -17 3
-18 -5 -6 -6 8 -11 11 -11 5 0 -5 -5 -3 -10 5 -8 12 -10 9 -8 -10 2 -16 -2
-24 -9 -23 -8 2 -12 -6 -10 -18 1 -12 -4 -23 -11 -25 -7 -1 -8 0 -2 3 7 3 6
13 -5 29 -9 14 -13 30 -9 37 3 7 -5 -1 -20 -17 -25 -28 -26 -28 -26 -7 0 12 5
32 11 44 7 12 8 19 4 15 -4 -4 -16 3 -27 15 l-19 22 3 -25 c2 -17 -2 -25 -12
-25 -8 0 -14 7 -12 15 3 11 -1 10 -16 -3 -11 -10 -22 -15 -24 -10 -9 17 -2 56
11 61 8 3 11 0 7 -7 -5 -7 -1 -9 9 -5 14 6 14 8 -2 19 -14 10 -19 10 -31 -1
-15 -16 -36 -19 -28 -5 4 5 2 11 -2 13 -5 1 -2 10 7 18 9 8 15 13 14 11 -3 -4
29 -22 60 -34 11 -4 17 -2 17 8 0 8 -6 12 -13 9 -14 -5 -50 30 -60 59 -7 18 1
21 27 11 9 -3 16 -15 16 -26 0 -10 4 -17 10 -13 5 3 6 13 3 23 -6 15 -5 15 10
3 10 -8 20 -11 23 -8 9 9 -5 27 -22 27 -8 0 -14 6 -14 13 0 8 -3 7 -10 -3 -8
-13 -11 -13 -22 -1 -7 8 -8 11 -2 8 7 -4 17 -1 23 7 6 7 22 11 36 8 14 -2 25
0 25 6 0 14 -54 26 -58 13 -2 -6 -7 -9 -12 -6 -5 3 -16 -3 -26 -12 -17 -17
-18 -17 -11 0 3 9 2 17 -4 17 -6 0 -7 5 -4 10 3 6 -6 15 -20 20 -36 14 -39 13
-19 -7 11 -11 13 -18 5 -21 -6 -2 -11 -10 -11 -17 0 -16 -12 -25 -41 -30 -13
-3 -19 0 -16 8 2 7 14 11 26 9 20 -3 21 -1 11 18 -6 12 -9 28 -6 36 3 8 1 14
-3 14 -5 0 -7 9 -4 20 3 12 0 20 -7 20 -6 0 -14 -9 -17 -19 -3 -12 -11 -17
-19 -14 -8 3 -12 9 -9 13 3 5 -6 17 -20 28 -14 11 -25 27 -25 36 0 22 -13 20
-28 -4 -7 -11 -18 -17 -27 -14 -17 7 -20 -7 -4 -23 8 -8 8 -13 0 -18 -7 -4
-17 7 -26 27 -8 18 -14 29 -15 24 0 -5 -9 -1 -20 9 -11 10 -20 14 -20 9 0 -5
-5 -16 -10 -24 -8 -13 -11 -12 -24 5 -9 11 -16 14 -16 8 0 -18 -20 -16 -20 2
0 8 -7 15 -15 15 -8 0 -15 4 -15 9 0 4 -11 6 -25 3 -18 -3 -25 0 -25 12 0 9
-4 16 -10 16 -5 0 -10 -4 -10 -10 0 -5 -4 -10 -10 -10 -16 0 -12 13 16 45 25
28 26 28 21 6 -6 -22 -5 -23 12 -5 11 12 14 20 7 23 -6 2 -25 18 -41 35 l-31
33 -19 -25 c-10 -14 -13 -22 -7 -18 8 4 12 0 13 -11 0 -10 2 -26 4 -35 2 -10
-5 -20 -16 -23 -10 -4 -19 -14 -19 -24 0 -10 -12 -28 -26 -42 l-27 -24 13 25
c7 14 18 28 23 32 6 4 4 12 -6 23 -16 15 -17 15 -17 -8 0 -13 -8 -33 -18 -45
-17 -19 -19 -19 -40 -3 -21 15 -21 18 -6 39 13 19 18 21 32 10 13 -11 14 -11
8 0 -8 13 31 82 47 82 4 0 7 14 7 30 0 17 -5 30 -11 30 -6 0 -8 -9 -4 -22 6
-17 4 -20 -11 -14 -10 4 -21 1 -26 -6 -6 -9 -7 -5 -3 9 5 19 3 22 -12 17 -11
-4 -14 -3 -6 3 6 4 14 22 18 38 4 20 3 26 -3 17 -7 -11 -12 -10 -26 3 -9 10
-20 15 -23 11 -3 -3 -12 -1 -20 6 -7 6 -17 7 -21 3 -4 -4 -1 -10 6 -12 15 -6
16 -53 1 -53 -10 0 -8 -10 9 -60 4 -12 2 -13 -9 -2 -19 18 -26 15 -25 -10 1
-15 -4 -22 -13 -20 -8 2 -11 -3 -8 -13 4 -9 1 -15 -9 -15 -11 0 -14 6 -10 16
3 9 6 20 6 26 0 6 6 8 13 5 10 -4 13 2 9 21 -3 15 -9 33 -14 39 -6 7 -8 23 -5
35 3 13 1 32 -3 43 -5 11 -9 14 -9 7 -2 -23 -35 19 -36 44 0 12 -3 26 -7 30
-5 4 -8 1 -8 -6 0 -9 -5 -7 -15 6 -11 14 -14 15 -15 4 0 -13 -1 -13 -10 0 -7
11 -10 11 -10 2z m-201 -128 c20 -33 29 -76 14 -60 -5 4 -9 12 -9 17 -1 5 -2
14 -3 19 0 6 -8 10 -17 10 -9 0 -12 -5 -8 -12 4 -7 3 -8 -4 -4 -18 11 -14 66
4 66 1 0 11 -16 23 -36z m59 11 c-3 -3 -9 2 -12 12 -6 14 -5 15 5 6 7 -7 10
-15 7 -18z m188 -32 c-2 -2 -11 0 -20 3 -14 5 -15 9 -4 16 11 8 11 10 -1 15
-11 5 -11 7 0 14 10 6 16 1 21 -18 4 -15 6 -28 4 -30z m-146 7 c0 -19 -18 -19
-23 -1 -3 14 -1 18 9 14 8 -3 14 -9 14 -13z m190 16 c0 -3 -4 -8 -10 -11 -5
-3 -10 -1 -10 4 0 6 5 11 10 11 6 0 10 -2 10 -4z m-344 -84 c-3 -2 -15 3 -28
12 -12 9 -17 16 -10 16 6 0 12 8 12 18 0 11 5 7 15 -12 9 -16 13 -31 11 -34z
m190 31 c-7 -7 -26 7 -26 19 0 6 6 6 15 -2 9 -7 13 -15 11 -17z m100 19 c6 -4
15 -18 19 -30 7 -23 7 -23 -19 -7 -14 10 -26 24 -26 31 0 15 9 18 26 6z m-193
-22 c3 -11 1 -20 -4 -20 -5 0 -9 9 -9 20 0 11 2 20 4 20 2 0 6 -9 9 -20z m57
0 c0 -5 -2 -10 -4 -10 -3 0 -8 5 -11 10 -3 6 -1 10 4 10 6 0 11 -4 11 -10z
m-365 -16 c14 -6 45 -53 45 -69 0 -12 -49 30 -50 43 0 6 -4 12 -10 12 -5 0
-10 5 -10 10 0 12 3 12 25 4z m408 -15 c-6 -6 -19 -9 -29 -6 -16 4 -15 5 4 6
12 0 22 6 22 13 0 6 3 8 7 5 4 -4 2 -12 -4 -18z m82 -61 c2 -25 -12 -22 -26 5
-7 12 -16 24 -20 27 -5 3 -6 16 -2 28 5 22 6 22 26 -10 11 -18 21 -41 22 -50z
m6 57 c5 4 9 -2 9 -11 0 -16 -1 -16 -20 1 -11 10 -20 23 -20 29 0 6 5 3 11 -7
6 -9 14 -15 20 -12z m-211 5 c0 -5 -2 -10 -4 -10 -3 0 -8 5 -11 10 -3 6 -1 10
4 10 6 0 11 -4 11 -10z m-20 -40 c0 -13 -1 -13 -10 0 -5 8 -10 22 -10 30 0 13
1 13 10 0 5 -8 10 -22 10 -30z m65 31 c-3 -5 -1 -12 5 -16 13 -8 13 -65 1 -65
-5 0 -13 9 -16 20 -3 11 -11 20 -16 20 -17 0 -9 38 9 43 9 3 18 5 20 6 2 0 1
-3 -3 -8z m530 -1 c3 -5 1 -10 -4 -10 -6 0 -11 5 -11 10 0 6 2 10 4 10 3 0 8
-4 11 -10z m-658 -32 c-3 -8 -6 -5 -6 6 -1 11 2 17 5 13 3 -3 4 -12 1 -19z
m203 -13 c0 -4 -8 -4 -17 -1 -15 6 -15 4 2 -14 11 -12 13 -20 6 -20 -7 0 -9
-4 -6 -10 3 -5 -2 -10 -12 -10 -15 0 -16 -2 -3 -11 12 -9 12 -10 1 -7 -16 5
-24 78 -9 78 4 0 8 7 8 16 0 14 2 14 15 0 8 -8 15 -18 15 -21z m269 23 c-1 -7
-4 -24 -8 -37 -6 -23 -7 -23 -24 -7 -29 30 -21 48 26 55 4 0 7 -5 6 -11z
m-132 -4 c-3 -4 0 -13 8 -21 13 -13 11 -18 -13 -43 -15 -15 -31 -25 -36 -23
-4 3 -3 9 4 13 7 4 12 24 12 44 0 26 4 36 16 36 8 0 13 -3 9 -6z m-287 -42 c0
-15 2 -15 10 -2 9 13 11 13 20 0 14 -21 12 -40 -2 -37 -20 3 -38 24 -38 42 0
9 -4 14 -9 11 -5 -3 -12 1 -15 9 -4 13 -2 14 14 5 11 -6 20 -18 20 -28z m-246
22 c16 -6 12 -24 -5 -24 -6 0 -7 5 -3 12 5 8 2 9 -9 5 -10 -3 -17 -2 -17 3 0
11 11 13 34 4z m136 -35 c0 -5 -7 -9 -15 -9 -8 0 -15 7 -15 15 0 9 6 12 15 9
8 -4 15 -10 15 -15z m465 -16 c0 -18 -3 -33 -6 -33 -4 0 -9 15 -11 33 -2 19 1
34 7 34 5 0 10 -15 10 -34z m-425 17 c0 -5 -2 -10 -4 -10 -3 0 -8 5 -11 10 -3
6 -1 10 4 10 6 0 11 -4 11 -10z m640 -23 c0 -7 -4 -6 -10 3 -8 12 -10 12 -10
1 0 -8 -3 -12 -6 -8 -9 9 6 28 17 22 5 -4 9 -12 9 -18z m58 -15 c-5 -27 -28
-26 -26 1 1 16 7 23 16 20 7 -3 12 -12 10 -21z m-468 8 c0 -5 -5 -10 -11 -10
-5 0 -7 5 -4 10 3 6 8 10 11 10 2 0 4 -4 4 -10z m54 -5 c-7 -16 -24 -21 -24
-6 0 8 7 13 27 20 1 1 0 -6 -3 -14z m-214 -16 c0 -6 -4 -7 -10 -4 -5 3 -10 2
-10 -4 0 -13 -33 -7 -38 7 -2 6 5 8 17 5 13 -3 21 -1 21 6 0 7 5 9 10 6 6 -3
10 -11 10 -16z m710 -44 c-13 -25 -30 -33 -30 -15 0 6 4 10 9 10 5 0 11 10 14
22 4 12 9 19 13 15 4 -4 1 -18 -6 -32z m97 29 c-3 -3 -12 -4 -19 -1 -8 3 -5 6
6 6 11 1 17 -2 13 -5z m-647 -44 c-7 -4 -9 -13 -5 -20 5 -8 4 -11 -3 -6 -13 8
-12 48 3 58 5 4 12 0 13 -9 2 -8 -2 -19 -8 -23z m336 4 c-25 -18 -31 -12 -14
15 8 14 16 17 23 10 7 -7 4 -15 -9 -25z m424 -23 c0 -5 -9 -16 -21 -24 -13
-10 -17 -17 -10 -22 13 -7 5 -25 -10 -25 -6 0 -7 5 -4 10 3 6 1 10 -5 10 -6 0
-10 8 -8 17 2 9 7 15 12 14 9 -3 26 17 26 31 0 3 -10 4 -22 0 -11 -3 -19 -1
-16 4 3 5 8 17 12 28 6 17 8 16 26 -7 11 -14 20 -30 20 -36z m-710 45 c0 -3
-4 -8 -10 -11 -5 -3 -10 -1 -10 4 0 6 5 11 10 11 6 0 10 -2 10 -4z m-305 -26
c-3 -5 -14 -10 -23 -9 -14 0 -13 2 3 9 27 11 27 11 20 0z m485 -20 c8 -16 8
-18 -5 -14 -8 4 -15 10 -15 16 0 5 -4 6 -10 3 -6 -3 -7 1 -4 9 7 18 20 13 34
-14z m260 26 c0 -2 -7 -6 -15 -10 -8 -3 -15 -1 -15 4 0 6 7 10 15 10 8 0 15
-2 15 -4z m-132 -35 c2 -25 -1 -28 -18 -24 -25 7 -26 29 -2 42 9 6 17 11 17
11 1 0 2 -13 3 -29z m-541 0 c0 -11 -6 -17 -14 -14 -16 6 -17 20 0 26 6 3 13
6 14 6 1 1 1 -8 0 -18z m227 3 c13 -33 6 -49 -9 -20 -18 33 -18 36 -6 36 5 0
12 -7 15 -16z m386 0 c0 -8 -4 -12 -10 -9 -5 3 -10 10 -10 16 0 5 5 9 10 9 6
0 10 -7 10 -16z m-323 -10 c2 -5 -7 -10 -19 -11 -13 0 -17 1 -10 4 6 3 9 9 6
15 -4 6 -1 9 6 6 8 -2 15 -9 17 -14z m188 -11 c-2 -10 -4 -21 -4 -24 -1 -9
-31 -6 -31 3 0 11 22 37 32 38 3 0 5 -8 3 -17z m-412 0 c4 -3 2 -12 -4 -20 -9
-10 -15 -10 -25 -2 -8 6 -14 15 -14 20 0 10 34 12 43 2z m327 3 c0 -3 -4 -8
-10 -11 -5 -3 -10 -1 -10 4 0 6 5 11 10 11 6 0 10 -2 10 -4z m175 -5 c3 -5 1
-12 -5 -16 -5 -3 -10 1 -10 9 0 18 6 21 15 7z m155 -1 c0 -5 -9 -10 -20 -10
-23 0 -25 -10 -7 -29 10 -11 10 -13 0 -7 -8 4 -13 1 -13 -8 0 -22 13 -20 35 4
30 34 43 25 42 -29 -1 -39 -5 -51 -19 -54 -10 -3 -18 -11 -18 -18 0 -10 3 -10
12 -1 17 17 28 15 28 -7 0 -25 -20 -38 -31 -20 -6 11 -11 11 -21 1 -9 -9 -9
-12 0 -12 7 0 12 -3 12 -7 0 -5 -11 -8 -25 -8 -27 0 -31 5 -14 22 15 15 2 50
-21 56 -11 3 -20 11 -20 17 0 7 7 10 15 6 8 -3 15 -2 15 3 0 5 -9 11 -20 14
-14 4 -20 0 -21 -11 -1 -15 -2 -15 -6 1 -2 9 -12 18 -21 18 -15 1 -15 2 1 6
38 10 62 29 62 48 0 13 9 22 25 26 14 4 26 7 28 8 1 0 2 -3 2 -9z m150 -9 c13
-25 13 -61 0 -61 -10 0 -13 14 -12 55 1 17 0 17 -4 3 -3 -10 -10 -18 -15 -18
-11 0 -11 3 -3 24 8 21 21 20 34 -3z m-900 -1 c0 -5 -4 -10 -10 -10 -5 0 -10
5 -10 10 0 6 5 10 10 10 6 0 10 -4 10 -10z m217 -12 c-3 -8 -6 -5 -6 6 -1 11
2 17 5 13 3 -3 4 -12 1 -19z m141 -34 c-1 -21 -6 -34 -15 -34 -16 0 -16 5 -3
31 7 13 7 19 0 19 -5 0 -10 -6 -10 -14 0 -8 -5 -18 -12 -22 -7 -5 -9 0 -6 14
4 15 0 23 -13 27 -10 4 -19 11 -19 16 0 12 17 12 25 -1 3 -5 12 -7 20 -4 8 4
12 11 8 18 -4 6 1 5 10 -2 10 -9 16 -27 15 -48z m76 32 c-21 -15 -30 -14 -19
3 3 6 14 11 23 11 13 0 13 -2 -4 -14z m111 4 c3 -5 1 -10 -4 -10 -6 0 -11 5
-11 10 0 6 2 10 4 10 3 0 8 -4 11 -10z m-95 -36 c0 -14 -12 -19 -23 -8 -9 9 4
35 14 28 5 -3 9 -12 9 -20z m680 16 c0 -5 -5 -10 -11 -10 -5 0 -7 5 -4 10 3 6
8 10 11 10 2 0 4 -4 4 -10z m-520 -15 c0 -9 -9 -19 -19 -23 -11 -4 -19 -11
-18 -17 1 -5 -7 -11 -18 -13 -16 -3 -13 4 15 32 41 41 40 40 40 21z m30 5 c0
-5 -4 -10 -10 -10 -5 0 -10 5 -10 10 0 6 5 10 10 10 6 0 10 -4 10 -10z m-340
-26 c0 -8 -7 -14 -15 -14 -15 0 -21 21 -9 33 10 9 24 -2 24 -19z m95 5 c4 -12
12 -18 21 -15 16 6 18 -3 5 -23 -8 -12 -12 -12 -25 -2 -9 7 -14 17 -11 21 3 5
1 11 -5 15 -13 8 -13 25 -1 25 5 0 13 -9 16 -21z m144 7 c9 -11 6 -17 -14 -30
-26 -17 -28 -15 -19 22 7 25 17 28 33 8z m411 10 c0 -3 -4 -8 -10 -11 -5 -3
-10 -1 -10 4 0 6 5 11 10 11 6 0 10 -2 10 -4z m37 -34 c0 -10 -7 -19 -13 -19
-9 0 -10 5 -3 19 5 10 12 18 14 18 2 0 3 -8 2 -18z m98 -7 c-3 -30 -15 -46
-15 -22 0 10 -5 17 -12 17 -9 0 18 28 29 30 1 0 0 -11 -2 -25z m-890 -5 c3 -5
1 -10 -4 -10 -6 0 -11 5 -11 10 0 6 2 10 4 10 3 0 8 -4 11 -10z m439 -5 c3 -8
1 -15 -4 -15 -6 0 -10 7 -10 15 0 8 2 15 4 15 2 0 6 -7 10 -15z m-597 -10 c0
-17 -32 -29 -49 -19 -9 5 -8 2 1 -9 8 -10 12 -20 9 -22 -8 -8 -38 6 -38 17 0
7 -5 6 -14 -1 -10 -8 -16 -8 -25 3 -11 13 10 22 94 40 11 2 20 4 21 5 0 0 1
-6 1 -14z m69 -10 c1 -8 -2 -13 -7 -9 -5 3 -9 12 -9 21 0 19 13 9 16 -12z
m275 -2 c28 -29 20 -74 -11 -66 -15 4 -20 0 -20 -15 0 -11 -6 -25 -14 -31 -11
-9 -14 -2 -19 41 -2 29 0 58 5 65 5 7 7 17 4 22 -12 19 35 6 55 -16z m547 9
c2 -7 -5 -12 -17 -12 -14 0 -19 5 -14 15 6 17 25 15 31 -3z m80 -2 c-7 -10
-14 -17 -17 -15 -4 4 18 35 25 35 2 0 -1 -9 -8 -20z m-930 -12 c-5 -15 -23
-11 -26 6 -2 11 2 14 13 10 9 -4 14 -11 13 -16z m446 -12 c-4 -17 -13 -26 -26
-26 -16 0 -19 -5 -15 -21 4 -16 3 -19 -5 -11 -14 14 7 68 31 81 21 12 23 9 15
-23z m68 25 c-11 -6 -10 -10 5 -15 17 -7 17 -8 1 -17 -9 -5 -15 -16 -12 -24 8
-19 -14 -40 -49 -49 -34 -8 -35 7 -2 40 24 24 35 51 15 39 -5 -3 -10 -2 -10 3
0 5 10 14 23 20 26 13 48 15 29 3z m468 -1 c0 -5 -4 -10 -9 -10 -5 0 -17 -7
-25 -16 -13 -12 -16 -12 -16 -2 0 8 5 19 12 26 15 15 38 16 38 2z m-1160 -16
c0 -2 -7 -4 -15 -4 -8 0 -15 4 -15 10 0 5 7 7 15 4 8 -4 15 -8 15 -10z m353 2
c4 -10 1 -13 -8 -9 -8 3 -12 9 -9 14 7 12 11 11 17 -5z m193 -1 c-1 -8 -5 -17
-8 -21 -5 -4 -4 16 1 34 3 9 9 -1 7 -13z m-265 -2 c-11 -5 -11 -7 0 -14 11 -7
10 -9 -4 -9 -14 0 -17 -5 -12 -20 7 -23 -7 -27 -25 -6 -7 9 -23 13 -41 11 -16
-2 -27 1 -24 6 4 5 17 9 31 9 17 0 23 4 18 12 -4 6 -3 9 2 6 5 -3 18 -2 29 3
11 4 25 8 30 8 6 -1 4 -3 -4 -6z m634 -13 c-3 -5 -1 -10 4 -10 6 0 11 -4 11
-8 0 -5 -7 -9 -15 -9 -8 0 -15 9 -15 19 0 10 5 18 11 18 5 0 7 -4 4 -10z m125
-7 c0 -11 -20 -29 -50 -46 -27 -15 -56 -35 -65 -43 -13 -13 -15 -13 -15 -1 0
8 7 20 15 27 8 7 15 20 15 30 0 23 38 49 73 49 19 1 27 -4 27 -16z m60 -8 c0
-9 -6 -18 -14 -21 -8 -3 -17 -12 -20 -19 -4 -10 3 -12 31 -8 26 4 34 3 29 -5
-4 -7 -2 -12 4 -12 6 0 8 -5 5 -10 -5 -8 -11 -8 -20 0 -9 8 -14 5 -18 -10 -3
-11 -11 -19 -19 -17 -7 2 -10 2 -5 0 14 -8 7 -25 -8 -19 -8 3 -15 1 -15 -4 0
-5 -5 -21 -10 -36 -9 -21 -13 -25 -23 -15 -9 10 -9 15 4 24 8 7 18 23 22 36 4
18 3 21 -6 12 -6 -6 -19 -11 -29 -11 -19 0 -24 -15 -9 -24 5 -3 7 -16 3 -28
-5 -21 -6 -21 -13 -2 -14 34 -9 54 13 63 15 5 18 10 9 15 -6 4 -23 0 -36 -8
-14 -9 -25 -12 -25 -7 0 17 43 41 73 41 26 0 28 2 17 16 -8 8 -9 14 -4 12 5
-2 11 2 12 7 15 43 52 64 52 30z m-776 -20 c8 -33 -1 -49 -18 -33 -19 20 -26
46 -13 52 22 8 25 6 31 -19z m-414 5 c0 -5 -9 -10 -20 -10 -11 0 -20 5 -20 10
0 6 9 10 20 10 11 0 20 -4 20 -10z m94 1 c3 -5 0 -11 -7 -14 -8 -3 -14 1 -14
9 0 16 13 19 21 5z m29 -21 c-3 -11 -7 -20 -9 -20 -2 0 -4 9 -4 20 0 11 4 20
9 20 5 0 7 -9 4 -20z m737 10 c0 -5 -2 -10 -4 -10 -3 0 -8 5 -11 10 -3 6 -1
10 4 10 6 0 11 -4 11 -10z m446 -4 c12 -13 11 -14 -13 -12 -39 5 -40 5 -23 16
19 12 19 13 36 -4z m-1087 -10 c9 -11 8 -15 -5 -20 -11 -4 -15 -2 -11 8 4 9
-1 17 -11 19 -15 4 -15 5 -1 6 9 0 22 -5 28 -13z m58 6 c12 -7 15 -51 3 -50
-3 0 -7 -1 -10 -2 -23 -8 -40 -6 -40 6 0 8 10 14 23 14 20 1 20 2 4 11 -9 6
-15 14 -12 20 7 11 16 11 32 1z m-132 -12 c-3 -5 -2 -10 3 -10 12 0 11 -28 -2
-33 -18 -7 -76 5 -76 15 0 6 11 7 26 4 20 -5 27 -3 31 14 3 11 10 20 15 20 5
0 6 -4 3 -10z m855 1 c0 -6 -4 -13 -10 -16 -5 -3 -10 -15 -10 -26 0 -10 -4
-19 -10 -19 -5 0 -10 2 -10 4 0 2 -3 11 -6 19 -3 8 2 22 11 31 18 18 35 21 35
7z m-1140 -5 c0 -3 -4 -8 -10 -11 -5 -3 -10 -1 -10 4 0 6 5 11 10 11 6 0 10
-2 10 -4z m465 -5 c3 -5 2 -12 -3 -15 -5 -3 -9 1 -9 9 0 17 3 19 12 6z m465
-11 c-10 -6 -11 -10 -2 -10 6 0 12 -5 12 -11 0 -6 -8 -8 -19 -4 -11 3 -22 1
-26 -5 -3 -5 2 -10 11 -10 10 0 15 -3 11 -6 -9 -9 -45 5 -50 21 -4 9 0 12 13
10 10 -2 21 3 24 11 3 8 13 14 23 14 15 0 16 -2 3 -10z m35 0 c3 -5 1 -10 -4
-10 -6 0 -11 5 -11 10 0 6 2 10 4 10 3 0 8 -4 11 -10z m55 6 c0 -2 -7 -6 -15
-10 -8 -3 -15 -1 -15 4 0 6 7 10 15 10 8 0 15 -2 15 -4z m457 -9 c3 -4 -3 -7
-15 -7 -12 0 -22 -6 -22 -14 0 -8 -6 -16 -13 -19 -8 -3 -14 1 -14 9 0 8 4 14
8 14 5 0 6 6 3 14 -4 11 1 14 20 12 14 -1 29 -6 33 -9z m-397 -17 c0 -20 -65
-59 -77 -46 -3 3 1 6 11 6 9 0 15 4 12 9 -10 15 6 43 20 37 7 -3 16 -1 19 4
10 15 15 12 15 -10z m-580 6 c0 -2 -9 -6 -20 -9 -11 -3 -18 -1 -14 4 5 9 34
13 34 5z m275 -15 c-8 -14 -25 -14 -25 0 0 5 5 7 10 4 6 -3 10 -1 10 6 0 7 3
10 6 6 3 -3 3 -10 -1 -16z m45 -12 c0 -5 -4 -9 -10 -9 -5 0 -10 7 -10 16 0 8
5 12 10 9 6 -3 10 -10 10 -16z m38 3 c9 -10 23 -29 30 -42 12 -20 12 -22 -2
-17 -10 4 -13 1 -9 -9 3 -7 0 -14 -6 -14 -6 0 -11 14 -11 30 0 17 -4 30 -9 30
-5 0 -11 9 -14 20 -6 25 -2 25 21 2z m122 -18 c0 -8 -4 -14 -9 -14 -11 0 -22
26 -14 34 9 9 23 -3 23 -20z m580 16 c0 -5 -7 -7 -15 -4 -8 4 -15 8 -15 10 0
2 7 4 15 4 8 0 15 -4 15 -10z m-1220 -32 c0 -4 -11 -3 -25 4 -13 6 -22 15 -19
19 5 9 44 -11 44 -23z m65 22 c3 5 12 10 18 10 7 -1 1 -10 -12 -20 -13 -11
-33 -20 -45 -19 -11 0 -15 3 -8 6 6 2 12 12 12 20 0 12 3 13 14 4 10 -8 16 -9
21 -1z m95 0 c0 -5 -5 -10 -11 -10 -5 0 -7 5 -4 10 3 6 8 10 11 10 2 0 4 -4 4
-10z m853 -7 c-3 -7 -6 -13 -8 -13 -2 0 -5 6 -8 13 -3 8 1 14 8 14 7 0 11 -6
8 -14z m-1173 -3 c0 -5 -5 -10 -11 -10 -5 0 -7 5 -4 10 3 6 8 10 11 10 2 0 4
-4 4 -10z m380 -9 c0 -13 -36 -20 -51 -10 -10 6 -7 10 11 17 26 10 40 7 40 -7z
m210 9 c0 -5 -5 -10 -11 -10 -5 0 -7 5 -4 10 3 6 8 10 11 10 2 0 4 -4 4 -10z
m23 -5 c4 -8 2 -17 -3 -20 -6 -4 -10 3 -10 14 0 25 6 27 13 6z m-643 -5 c0 -5
-5 -10 -11 -10 -5 0 -7 5 -4 10 3 6 8 10 11 10 2 0 4 -4 4 -10z m163 -15 c15
-4 27 -12 27 -17 0 -7 4 -7 13 0 6 5 28 13 47 17 l35 6 -42 -26 c-33 -20 -44
-34 -49 -61 -4 -20 -9 -32 -13 -27 -11 15 -31 13 -25 -2 4 -9 0 -15 -9 -15 -8
0 -17 5 -19 11 -2 7 -16 4 -38 -10 -37 -22 -55 -27 -46 -12 3 5 -1 11 -9 14
-9 4 -12 1 -9 -7 3 -8 -5 -21 -17 -30 -13 -8 -19 -19 -15 -23 4 -4 11 -1 16 7
7 12 12 12 22 2 10 -10 8 -14 -10 -18 -25 -7 -27 -15 -10 -32 9 -9 7 -12 -10
-12 -17 0 -24 7 -29 31 -5 28 -8 30 -18 16 -11 -16 -13 -15 -26 1 -25 31 -40
62 -29 62 5 0 12 0 15 0 2 0 20 17 39 36 32 33 64 39 53 10 -3 -7 4 -13 14
-13 10 -1 19 2 19 8 0 5 -4 9 -10 9 -5 0 -7 8 -4 18 5 14 4 15 -5 2 -6 -8 -11
-10 -11 -4 0 18 24 34 54 36 16 2 25 7 22 15 -3 7 0 15 6 19 7 4 8 3 4 -4 -4
-7 -2 -12 4 -12 6 0 13 7 17 16 3 9 8 11 12 6 3 -6 19 -14 34 -17z m1192 6
c-3 -6 -11 -11 -17 -11 -6 0 -6 6 2 15 14 17 26 13 15 -4z m-915 -6 c0 -8 -4
-15 -10 -15 -5 0 -10 7 -10 15 0 8 5 15 10 15 6 0 10 -7 10 -15z m522 -7 c-7
-7 -12 -8 -12 -2 0 6 3 14 7 17 3 4 9 5 12 2 2 -3 -1 -11 -7 -17z m455 -9 c2
-25 -13 -25 -27 0 -14 27 -13 30 8 24 10 -2 18 -13 19 -24z m-1067 -16 c0 -11
-7 -13 -26 -9 -17 5 -34 0 -52 -12 -27 -19 -52 -19 -52 -1 0 12 68 42 79 34 5
-3 12 2 15 11 5 13 9 14 21 4 8 -7 15 -19 15 -27z m344 21 c12 -31 7 -55 -11
-52 -10 2 -17 -3 -15 -9 1 -7 -2 -13 -8 -13 -5 0 -19 -9 -30 -20 -22 -22 -41
-26 -37 -8 1 7 -5 12 -13 13 -9 0 -16 12 -18 31 -3 27 1 33 29 44 27 12 32 11
41 -3 5 -9 16 -17 24 -17 8 0 13 4 10 9 -7 11 3 41 14 41 4 0 11 -7 14 -16z
m780 1 c3 -8 1 -15 -4 -15 -6 0 -10 7 -10 15 0 8 2 15 4 15 2 0 6 -7 10 -15z
m-1060 -11 c9 -24 2 -26 -12 -4 -7 11 -8 20 -3 20 5 0 12 -7 15 -16z m351 -4
c-3 -5 -2 -10 4 -10 5 0 12 6 14 13 4 8 6 7 6 -3 1 -15 -44 -42 -54 -32 -3 3
2 14 12 24 17 19 28 24 18 8z m145 1 c0 -5 -7 -14 -15 -21 -16 -14 -18 -10 -9
14 6 17 24 22 24 7z m582 -33 c-8 -8 -9 -4 -5 13 4 13 8 18 11 10 2 -7 -1 -18
-6 -23z m-1018 -11 c6 -15 7 -29 3 -33 -10 -10 -32 18 -35 44 -3 32 20 23 32
-11z m977 16 c13 -16 12 -17 -3 -4 -17 13 -22 21 -14 21 2 0 10 -8 17 -17z
m-482 -21 c0 -10 -3 -12 -5 -5 -3 7 -12 9 -20 6 -8 -3 -14 -1 -14 5 0 12 21
21 33 15 4 -2 7 -12 6 -21z m88 9 c-1 -15 -4 -17 -14 -9 -7 5 -10 14 -7 19 10
16 23 9 21 -10z m41 0 c3 -8 -1 -12 -9 -9 -7 2 -15 10 -17 17 -3 8 1 12 9 9 7
-2 15 -10 17 -17z m-745 -1 c9 0 9 -2 1 -8 -8 -5 -4 -13 12 -25 l25 -19 -7 29
c-7 26 -6 27 9 11 9 -9 17 -22 17 -28 0 -7 6 -10 14 -7 16 6 53 -29 42 -40 -4
-4 -11 -1 -16 7 -8 13 -10 12 -10 -2 0 -10 -7 -18 -16 -18 -8 0 -13 4 -10 9 3
5 -5 11 -19 13 -13 3 -26 2 -27 -3 -2 -4 -18 -1 -36 7 -31 13 -32 15 -18 30
21 21 20 27 -3 21 -10 -2 -25 -1 -32 4 -10 6 -8 9 9 9 12 0 22 5 22 11 0 6 7
8 16 5 9 -3 21 -6 27 -6z m363 -42 c-18 -26 -22 -17 -5 14 6 11 13 17 16 15 3
-3 -2 -16 -11 -29z m59 12 c-10 -11 -21 -20 -26 -20 -4 0 -5 9 -2 20 3 12 14
20 26 20 19 0 20 -1 2 -20z m-87 -2 c-6 -17 -36 -34 -45 -24 -4 4 1 14 11 22
24 17 39 18 34 2z m816 -2 c-9 -23 -33 -28 -27 -5 3 10 11 19 19 19 7 0 11 -6
8 -14z m-1636 -30 c-7 -7 -19 -11 -25 -9 -16 6 -17 23 -2 23 5 0 7 5 3 11 -4
8 0 8 15 0 17 -10 19 -14 9 -25z m399 12 c-3 -8 -6 -5 -6 6 -1 11 2 17 5 13 3
-3 4 -12 1 -19z m778 12 c3 -5 -1 -10 -9 -10 -9 0 -16 5 -16 10 0 6 4 10 9 10
6 0 13 -4 16 -10z m-795 -10 c0 -5 -9 -10 -20 -10 -11 0 -20 5 -20 10 0 6 9
10 20 10 11 0 20 -4 20 -10z m620 1 c0 -10 -30 -24 -37 -17 -3 3 -2 9 2 15 8
13 35 15 35 2z m561 -7 c12 -15 11 -16 -10 -9 -16 5 -21 4 -17 -4 9 -14 0 -14
-26 0 -13 7 -18 7 -14 1 3 -6 1 -14 -5 -18 -8 -5 -8 -8 0 -13 8 -5 7 -13 -4
-27 -21 -27 -36 -2 -22 36 17 46 73 64 98 34z m-515 -5 c4 -8 9 -7 15 2 6 9 9
10 9 2 0 -7 12 -10 35 -7 33 4 47 -8 25 -21 -5 -3 -10 0 -10 7 0 10 -2 10 -9
-1 -6 -10 -13 -11 -29 -2 -12 6 -23 7 -26 2 -7 -10 -46 -3 -46 8 0 21 25 27
36 10z m-347 -26 c10 -21 9 -23 -11 -23 -16 0 -19 3 -11 11 6 6 9 19 6 28 -8
21 1 12 16 -16z m751 -3 c-5 -16 -6 -38 -3 -49 4 -16 1 -19 -16 -14 -12 3 -21
13 -22 22 0 11 -3 9 -9 -6 -11 -27 -27 -29 -58 -7 -12 8 -22 12 -22 8 0 -3 -7
-1 -15 6 -8 6 -19 9 -25 5 -5 -3 -10 -1 -10 4 0 21 -42 11 -62 -15 l-20 -25
-19 20 c-11 11 -19 22 -19 25 0 9 80 27 90 21 6 -3 10 0 10 9 0 11 9 13 42 9
23 -2 50 -9 60 -14 13 -7 25 -5 42 7 14 8 30 13 36 9 5 -3 10 -1 10 4 0 6 4
11 9 11 6 0 6 -12 1 -30z m-1167 13 c-7 -2 -19 -2 -25 0 -7 3 -2 5 12 5 14 0
19 -2 13 -5z m623 -35 c-9 -12 -16 -34 -16 -49 0 -26 -15 -39 -47 -39 -23 0
-8 64 22 94 43 43 72 39 41 -6z m-882 16 c4 -10 1 -14 -6 -12 -15 5 -23 28
-10 28 5 0 13 -7 16 -16z m199 2 c8 -20 -22 -29 -39 -12 -12 13 -12 15 4 19
29 8 30 7 35 -7z m532 4 c3 -5 1 -10 -4 -10 -6 0 -11 5 -11 10 0 6 2 10 4 10
3 0 8 -4 11 -10z m815 0 c0 -5 -8 -10 -17 -10 -15 0 -16 2 -3 10 19 12 20 12
20 0z m-1020 -25 c32 -10 24 -35 -10 -35 -16 0 -30 -3 -30 -7 0 -17 -69 -5
-100 17 -32 23 -31 35 5 42 21 4 101 -6 135 -17z m485 4 c6 -4 17 -4 25 1 26
17 60 12 60 -9 0 -10 -6 -23 -13 -29 -13 -11 -176 -36 -184 -28 -12 12 10 68
30 76 23 9 64 3 82 -11z m-1070 -9 c3 -5 1 -10 -4 -10 -6 0 -11 5 -11 10 0 6
2 10 4 10 3 0 8 -4 11 -10z m405 -10 c11 -11 20 -21 20 -23 0 -1 -16 -11 -35
-21 -19 -11 -35 -23 -35 -29 0 -5 7 -4 15 3 8 7 15 9 15 5 0 -4 7 -2 15 5 8 7
15 8 15 3 0 -5 -14 -17 -31 -27 -29 -17 -31 -17 -45 1 -13 17 -14 17 -7 -2 6
-18 5 -18 -10 -6 -32 26 -15 51 34 51 16 0 18 5 14 30 -6 35 6 39 35 10z
m1210 -10 c-7 -5 -19 -6 -27 -3 -10 4 -8 9 9 17 24 13 40 0 18 -14z m-1314 5
c-3 -8 -1 -15 5 -15 6 0 4 -9 -4 -20 -16 -23 -11 -70 7 -70 6 -1 0 -7 -14 -14
-23 -13 -53 -11 -32 3 5 3 13 17 17 30 6 20 4 23 -9 18 -15 -6 -16 -4 -2 21 8
15 17 35 20 45 3 9 8 17 12 17 3 0 4 -7 0 -15z m51 -17 c-3 -7 -5 -2 -5 12 0
14 2 19 5 13 2 -7 2 -19 0 -25z m288 12 c-3 -5 -11 -10 -16 -10 -6 0 -7 5 -4
10 3 6 11 10 16 10 6 0 7 -4 4 -10z m95 -11 c0 -6 -4 -7 -10 -4 -5 3 -10 11
-10 16 0 6 5 7 10 4 6 -3 10 -11 10 -16z m102 -15 c-3 -19 -7 -22 -13 -12 -7
10 -9 9 -9 -5 0 -10 -4 -15 -10 -12 -14 9 -12 21 6 39 23 23 32 20 26 -10z
m488 6 c0 -11 -7 -20 -15 -20 -8 0 -15 5 -15 11 0 5 -4 8 -8 5 -5 -3 -9 1 -9
9 0 9 10 15 24 15 16 0 23 -6 23 -20z m360 0 c0 -21 -16 -26 -39 -11 -18 11
-5 31 20 31 12 0 19 -7 19 -20z m-1444 -37 c-2 -48 -21 -62 -46 -35 -20 22
-13 36 13 26 8 -3 18 -1 22 5 3 6 2 11 -3 11 -6 0 -12 6 -15 13 -3 7 3 13 13
13 14 0 18 -8 16 -33z m-291 17 c3 -5 1 -10 -4 -10 -6 0 -11 5 -11 10 0 6 2
10 4 10 3 0 8 -4 11 -10z m1258 1 c4 -1 -10 -19 -33 -41 -22 -21 -40 -43 -40
-48 0 -5 -18 -5 -40 1 -44 12 -49 21 -22 36 9 6 11 11 5 11 -16 0 -53 -31 -53
-45 -1 -23 -20 -38 -56 -41 -22 -2 -56 -6 -76 -9 -21 -3 -38 -3 -38 0 0 23 37
68 76 94 41 27 56 31 115 31 37 0 70 3 72 8 4 6 56 8 90 3z m67 -1 c11 -8 9
-9 -12 -8 -16 1 -28 6 -28 10 0 11 22 10 40 -2z m-1280 -10 c0 -5 -5 -10 -11
-10 -5 0 -7 5 -4 10 3 6 8 10 11 10 2 0 4 -4 4 -10z m545 0 c3 -6 -1 -7 -9 -4
-18 7 -21 14 -7 14 6 0 13 -4 16 -10z m40 1 c3 -5 1 -12 -5 -16 -5 -3 -10 1
-10 9 0 18 6 21 15 7z m-52 -29 c18 -16 24 -38 7 -27 -6 4 -10 -5 -10 -19 0
-14 -2 -26 -4 -26 -2 0 -11 -3 -20 -6 -19 -7 -21 9 -3 28 6 7 13 21 15 32 3
14 -1 17 -13 12 -9 -3 -23 -6 -31 -6 -8 0 -14 -4 -14 -10 0 -5 7 -7 15 -4 16
7 19 -4 6 -24 -6 -10 -14 -9 -39 5 -36 20 -42 34 -12 26 14 -4 20 0 20 10 0
35 46 40 83 9z m864 22 c-3 -3 -12 -4 -19 -1 -8 3 -5 6 6 6 11 1 17 -2 13 -5z
m443 -14 c0 -13 -7 -20 -20 -20 -22 0 -28 25 -7 33 22 10 27 7 27 -13z m-1030
-28 c0 -15 -2 -15 -10 -2 -13 20 -13 33 0 25 6 -3 10 -14 10 -23z m66 12 c-3
-9 -6 -18 -6 -20 0 -3 -4 -3 -10 1 -11 7 -2 35 12 35 6 0 7 -7 4 -16z m622 -5
c-2 -6 -8 -10 -13 -10 -5 0 -11 4 -13 10 -2 6 4 11 13 11 9 0 15 -5 13 -11z
m-1351 -35 c-7 -7 -37 7 -37 17 0 6 9 5 21 -1 11 -7 19 -14 16 -16z m513 12
c0 -8 -10 -17 -22 -19 -20 -4 -20 -4 4 -6 18 -1 28 5 31 17 3 9 5 2 6 -17 1
-26 -2 -32 -15 -27 -8 3 -12 2 -9 -4 14 -23 -22 -7 -39 17 -19 25 -19 26 -1
39 24 18 45 18 45 0z m-556 -35 c-11 -2 -28 -10 -39 -17 -11 -8 -26 -14 -35
-13 -8 0 -2 5 13 11 22 8 26 13 16 24 -9 11 -8 14 5 14 9 0 16 5 16 12 0 6 9
3 21 -8 20 -18 20 -19 3 -23z m266 29 c0 -5 -5 -10 -12 -10 -6 0 -8 -3 -5 -7
4 -3 15 2 26 11 26 24 34 5 15 -33 -10 -20 -21 -30 -30 -27 -8 3 -14 1 -14 -4
0 -11 -33 -14 -42 -4 -3 3 6 23 20 45 25 38 42 50 42 29z m200 -10 c0 -5 -7
-10 -16 -10 -8 0 -12 5 -9 10 3 6 10 10 16 10 5 0 9 -4 9 -10z m-710 -10 c0
-5 -7 -7 -15 -4 -8 4 -15 8 -15 10 0 2 7 4 15 4 8 0 15 -4 15 -10z m1255 0
c23 -9 25 -13 15 -25 -7 -8 -10 -25 -6 -39 5 -20 1 -24 -23 -29 -16 -4 -52 -2
-80 2 -28 4 -51 4 -51 0 0 -4 -10 -11 -22 -15 -13 -4 -26 -11 -29 -16 -3 -5
-16 -10 -27 -11 -12 -1 -22 -5 -22 -9 0 -4 -7 -8 -15 -8 -23 0 -18 45 8 74 18
22 32 26 80 27 32 1 60 6 63 11 3 4 16 8 30 8 21 0 24 4 19 20 -7 23 16 27 60
10z m-798 -14 c-2 -5 -11 -14 -20 -20 -13 -8 -20 -7 -27 4 -5 8 -7 17 -4 21 6
10 54 5 51 -5z m132 5 c12 -8 12 -11 0 -23 -19 -19 -49 -30 -49 -18 0 12 23
50 30 50 3 0 11 -4 19 -9z m271 5 c0 -3 -4 -8 -10 -11 -5 -3 -10 -1 -10 4 0 6
5 11 10 11 6 0 10 -2 10 -4z m-753 -12 c-3 -3 -12 -4 -19 -1 -8 3 -5 6 6 6 11
1 17 -2 13 -5z m830 -16 c-3 -8 -6 -5 -6 6 -1 11 2 17 5 13 3 -3 4 -12 1 -19z
m-207 -9 c0 -5 -7 -9 -16 -9 -8 0 -13 -3 -11 -7 3 -5 -17 -8 -45 -9 -31 0 -53
-6 -58 -14 -13 -20 -64 -24 -80 -5 -8 10 -9 15 -1 15 6 0 11 -5 11 -10 0 -12
36 5 58 27 8 7 23 11 37 7 12 -3 25 -2 28 3 7 12 77 13 77 2z m141 -8 c7 11 9
10 9 -4 0 -10 -7 -20 -15 -24 -21 -7 -27 0 -18 23 4 12 8 14 11 5 4 -11 6 -11
13 0z m741 -33 c-15 -15 -26 -4 -18 18 5 13 9 15 18 6 9 -9 9 -15 0 -24z
m-259 -9 c12 -11 15 -19 8 -24 -6 -3 -8 -11 -5 -17 4 -7 2 -8 -5 -4 -6 4 -9
12 -6 17 8 11 -6 12 -24 0 -19 -12 -4 -31 25 -31 13 0 24 -5 24 -11 0 -5 5 -7
10 -4 6 3 10 1 10 -4 0 -6 7 -11 15 -11 8 0 15 -9 15 -19 0 -14 -5 -18 -20
-14 -11 3 -20 9 -20 14 0 5 -6 9 -13 9 -7 0 -23 9 -35 21 -13 11 -38 23 -57
26 -41 7 -46 18 -9 21 38 3 46 10 34 32 -5 10 -10 21 -10 23 0 10 45 -7 63
-24z m-917 6 c17 -16 14 -18 -10 -9 -9 3 -16 10 -16 15 0 13 9 11 26 -6z
m1087 -56 c3 -10 1 -19 -5 -19 -5 0 -6 -5 -2 -12 4 -7 3 -8 -4 -4 -7 4 -12 2
-12 -3 0 -6 -4 -11 -10 -11 -16 0 -12 27 5 34 8 3 12 12 9 21 -3 8 -11 12 -16
9 -6 -4 -5 -10 3 -16 11 -7 9 -8 -4 -4 -10 3 -21 6 -23 6 -13 0 -1 19 14 22
25 6 39 -1 45 -23z m-943 12 c0 -11 -25 -21 -53 -21 -21 1 -21 1 3 15 29 16
50 19 50 6z m656 -22 c26 -22 14 -29 -21 -12 -19 9 -35 20 -35 24 0 11 39 2
56 -12z m-1035 -1 c-1 -5 -4 -8 -8 -7 -4 0 -10 -6 -13 -15 -3 -10 -10 -12 -19
-6 -12 7 -13 11 -1 25 13 15 42 17 41 3z m15 -26 c-17 -16 -18 -16 -5 5 7 12
15 20 18 17 3 -2 -3 -12 -13 -22z m1352 1 c-5 -25 -28 -28 -28 -4 0 12 6 21
16 21 9 0 14 -7 12 -17z m-188 -58 c0 -10 -19 -5 -34 11 -9 8 -13 20 -10 26 6
9 44 -23 44 -37z m245 35 c3 -5 1 -10 -4 -10 -6 0 -11 5 -11 10 0 6 2 10 4 10
3 0 8 -4 11 -10z m-45 -30 c12 -8 11 -10 -7 -10 -13 0 -23 5 -23 10 0 13 11
13 30 0z m174 -22 c-4 -15 -3 -18 6 -13 9 5 11 4 6 -3 -13 -22 -26 -12 -24 17
1 16 6 27 10 24 5 -2 6 -14 2 -25z m23 10 c-3 -8 -6 -5 -6 6 -1 11 2 17 5 13
3 -3 4 -12 1 -19z m-1574 5 c-7 -2 -19 -2 -25 0 -7 3 -2 5 12 5 14 0 19 -2 13
-5z m1522 -54 c-4 -5 -12 -9 -18 -8 -9 0 -8 2 1 6 6 2 9 10 6 15 -4 7 -2 8 5
4 6 -4 9 -12 6 -17z m-816 -436 c0 -23 -61 -72 -67 -55 -2 7 -12 12 -22 12
-11 0 -24 9 -30 20 -9 17 -6 20 27 25 21 4 45 8 53 10 33 6 40 4 39 -12z
m-125 -45 c6 -5 2 -8 -11 -8 -15 0 -20 5 -18 18 5 27 6 28 12 12 3 -8 11 -18
17 -22z m236 -19 c0 -5 -4 -9 -10 -9 -5 0 -10 7 -10 16 0 8 5 12 10 9 6 -3 10
-10 10 -16z m258 -273 c-2 -5 7 -13 20 -17 28 -10 20 -29 -11 -27 -12 0 -30
-3 -40 -7 -16 -7 -18 -4 -15 21 2 17 8 28 16 27 6 -2 12 2 12 8 0 6 5 9 11 7
6 -2 9 -7 7 -12z m-108 -50 c15 -14 23 -16 33 -8 10 8 16 7 24 -7 7 -12 21
-17 37 -16 22 3 26 -1 26 -21 0 -18 -6 -24 -22 -25 -32 -2 -31 -2 -55 6 -17 5
-23 2 -23 -9 0 -14 -4 -14 -37 2 -21 9 -44 23 -51 30 -8 7 -25 10 -40 6 -64
-13 -72 -14 -72 -8 0 13 64 68 82 71 11 2 31 -6 45 -17 14 -11 29 -18 32 -15
5 6 -13 21 -33 28 -5 2 -6 8 -2 15 8 13 16 8 56 -32z"/>
<path d="M2405 3210 c3 -5 8 -10 11 -10 2 0 4 5 4 10 0 6 -5 10 -11 10 -5 0
-7 -4 -4 -10z"/>
<path d="M2578 3093 c7 -3 16 -2 19 1 4 3 -2 6 -13 5 -11 0 -14 -3 -6 -6z"/>
<path d="M2616 3091 c-3 -5 1 -11 9 -14 9 -4 12 -1 8 9 -6 16 -10 17 -17 5z"/>
<path d="M1805 2860 c3 -5 14 -10 23 -10 15 0 15 2 2 10 -20 13 -33 13 -25 0z"/>
<path d="M1850 2854 c0 -6 -10 -16 -22 -22 -25 -12 -4 -15 24 -4 13 5 15 11 8
22 -5 8 -10 10 -10 4z"/>
<path d="M1730 2820 c-9 -16 -8 -22 5 -26 20 -8 19 -24 -2 -24 -13 0 -14 -3
-5 -12 9 -9 15 -8 26 7 12 17 12 21 -2 31 -14 10 -14 14 -3 28 8 10 9 16 3 16
-6 0 -16 -9 -22 -20z"/>
<path d="M1754 2809 c-3 -5 4 -9 16 -9 12 0 18 -4 15 -10 -3 -5 3 -10 14 -10
12 0 21 5 21 11 0 5 -4 7 -10 4 -5 -3 -10 -2 -10 3 0 13 -39 22 -46 11z"/>
<path d="M1631 2766 c-13 -16 -2 -29 16 -18 7 4 8 13 4 20 -6 10 -10 10 -20
-2z"/>
<path d="M1657 2739 c-9 -6 -15 -14 -12 -19 6 -10 45 9 45 22 0 11 -11 10 -33
-3z"/>
<path d="M2277 2834 c-4 -4 -7 -14 -7 -23 0 -11 3 -12 11 -4 6 6 10 16 7 23
-2 6 -7 8 -11 4z"/>
<path d="M2010 2760 c0 -5 5 -10 10 -10 6 0 10 5 10 10 0 6 -4 10 -10 10 -5 0
-10 -4 -10 -10z"/>
<path d="M2025 2679 c-19 -9 -18 -9 3 -5 12 2 22 0 22 -6 0 -5 5 -6 10 -3 11
7 4 26 -8 24 -4 0 -16 -5 -27 -10z"/>
<path d="M3166 2648 c3 -4 9 -8 15 -8 5 0 9 4 9 8 0 5 -7 9 -15 9 -8 0 -12 -4
-9 -9z"/>
<path d="M2615 2590 c3 -5 8 -10 11 -10 2 0 4 5 4 10 0 6 -5 10 -11 10 -5 0
-7 -4 -4 -10z"/>
<path d="M3070 3650 c0 -13 18 -22 24 -11 3 5 -1 11 -9 15 -8 3 -15 1 -15 -4z"/>
<path d="M3147 3629 c6 -6 9 -18 6 -25 -3 -8 -1 -14 4 -14 5 0 10 11 11 25 1
18 -3 25 -15 25 -13 0 -14 -3 -6 -11z"/>
<path d="M3120 3591 c0 -6 5 -13 10 -16 6 -3 10 1 10 9 0 9 -4 16 -10 16 -5 0
-10 -4 -10 -9z"/>
<path d="M3050 3574 c0 -8 5 -12 10 -9 6 4 8 11 5 16 -9 14 -15 11 -15 -7z"/>
<path d="M4051 3574 c0 -11 3 -14 6 -6 3 7 2 16 -1 19 -3 4 -6 -2 -5 -13z"/>
<path d="M120 3565 c-8 -9 -8 -15 -2 -15 12 0 26 19 19 26 -2 2 -10 -2 -17
-11z"/>
<path d="M3145 3549 c-4 -11 -5 -23 -2 -25 8 -8 38 27 32 37 -10 15 -23 10
-30 -12z"/>
<path d="M970 3547 c0 -18 83 -94 154 -143 98 -66 101 -70 59 -77 -20 -3 -16
-4 14 -6 35 -1 40 -4 36 -20 -3 -13 2 -24 16 -33 12 -7 21 -22 22 -33 0 -11 3
-14 6 -7 6 16 23 15 23 -1 0 -8 9 -22 20 -32 20 -18 21 -18 14 1 -4 10 -11 24
-16 31 -6 8 -4 11 9 9 10 -2 17 -11 17 -20 -3 -25 15 -19 26 8 6 17 14 23 28
20 36 -10 68 61 36 79 -13 7 -14 11 -4 17 11 7 10 11 -2 24 -9 8 -18 12 -22 9
-3 -4 -6 -1 -6 5 0 6 12 22 26 35 22 20 24 29 19 60 -7 36 -25 42 -25 8 0 -17
-50 -61 -69 -61 -5 0 -17 -7 -26 -16 -9 -9 -36 -19 -61 -22 -36 -4 -49 -1 -67
15 -12 11 -26 22 -32 24 -35 14 -128 75 -147 98 -31 36 -48 46 -48 28z m420
-191 c0 -2 -7 -7 -16 -10 -8 -3 -12 -2 -9 4 6 10 25 14 25 6z m40 -79 c0 -5
-4 -6 -9 -3 -5 4 -12 0 -14 -6 -3 -8 -6 -5 -6 5 -1 11 -8 18 -18 16 -33 -3
-43 1 -43 16 0 18 16 20 23 3 3 -10 10 -8 23 5 17 16 19 16 31 -5 7 -13 12
-27 13 -31z"/>
<path d="M2412 3530 c0 -14 2 -19 5 -12 2 6 2 18 0 25 -3 6 -5 1 -5 -13z"/>
<path d="M3063 3520 c0 -16 2 -30 3 -30 2 0 16 12 31 27 17 16 21 24 11 20
-10 -4 -18 -2 -18 3 0 6 -6 10 -13 10 -8 0 -14 -12 -14 -30z"/>
<path d="M2835 3529 c-10 -15 3 -25 16 -12 7 7 7 13 1 17 -6 3 -14 1 -17 -5z"/>
<path d="M2900 3510 c0 -5 7 -10 16 -10 8 0 12 5 9 10 -3 6 -10 10 -16 10 -5
0 -9 -4 -9 -10z"/>
<path d="M3025 3510 c3 -5 10 -10 16 -10 5 0 9 5 9 10 0 6 -7 10 -16 10 -8 0
-12 -4 -9 -10z"/>
<path d="M3093 3493 c-7 -3 -13 -10 -13 -18 0 -7 -6 -18 -13 -24 -11 -8 -17
-5 -27 14 -7 14 -17 25 -22 25 -5 0 -6 -4 -3 -10 3 -5 -4 -11 -17 -11 -20 -1
-21 -2 -3 -6 11 -3 24 -11 30 -18 5 -7 22 -15 37 -19 22 -5 25 -3 21 12 -3 12
3 22 16 28 22 9 15 34 -6 27z"/>
<path d="M2932 3471 c2 -7 7 -12 11 -12 12 1 9 15 -3 20 -7 2 -11 -2 -8 -8z"/>
<path d="M4185 3450 c-3 -5 -1 -10 4 -10 6 0 11 5 11 10 0 6 -2 10 -4 10 -3 0
-8 -4 -11 -10z"/>
<path d="M45 3439 c-10 -15 3 -25 16 -12 7 7 7 13 1 17 -6 3 -14 1 -17 -5z"/>
<path d="M1460 3430 c0 -5 5 -10 11 -10 5 0 7 5 4 10 -3 6 -8 10 -11 10 -2 0
-4 -4 -4 -10z"/>
<path d="M2975 3430 c3 -5 8 -10 11 -10 2 0 4 5 4 10 0 6 -5 10 -11 10 -5 0
-7 -4 -4 -10z"/>
<path d="M1475 3400 c3 -5 8 -10 11 -10 2 0 4 5 4 10 0 6 -5 10 -11 10 -5 0
-7 -4 -4 -10z"/>
<path d="M2445 3400 c-4 -6 -11 -8 -16 -5 -5 4 -9 1 -9 -4 0 -17 27 -13 34 4
6 17 0 20 -9 5z"/>
<path d="M1500 3392 c0 -6 5 -14 11 -17 6 -4 8 -14 5 -22 -4 -9 0 -13 12 -12
9 2 27 -2 39 -9 17 -9 22 -9 26 1 4 9 8 8 16 -3 5 -8 12 -12 15 -9 3 3 -8 18
-24 34 -17 16 -30 23 -30 17 0 -7 5 -12 10 -12 6 0 10 -4 10 -10 0 -14 -32 0
-62 28 -16 14 -28 21 -28 14z"/>
<path d="M1470 3369 c0 -5 5 -7 10 -4 6 3 10 8 10 11 0 2 -4 4 -10 4 -5 0 -10
-5 -10 -11z"/>
<path d="M131 3354 c0 -11 3 -14 6 -6 3 7 2 16 -1 19 -3 4 -6 -2 -5 -13z"/>
<path d="M75 3330 c-3 -5 -1 -10 4 -10 6 0 11 5 11 10 0 6 -2 10 -4 10 -3 0
-8 -4 -11 -10z"/>
<path d="M1470 3320 c0 -5 5 -10 11 -10 5 0 7 5 4 10 -3 6 -8 10 -11 10 -2 0
-4 -4 -4 -10z"/>
<path d="M3538 3313 c7 -3 16 -2 19 1 4 3 -2 6 -13 5 -11 0 -14 -3 -6 -6z"/>
<path d="M2870 3301 c0 -6 5 -13 10 -16 6 -3 10 1 10 9 0 9 -4 16 -10 16 -5 0
-10 -4 -10 -9z"/>
<path d="M3125 3299 c4 -10 0 -19 -9 -22 -9 -4 -16 -13 -16 -21 0 -22 28 -9
36 16 3 11 1 25 -6 32 -8 8 -10 7 -5 -5z"/>
<path d="M3485 3280 c-3 -5 1 -10 10 -10 9 0 13 5 10 10 -3 6 -8 10 -10 10 -2
0 -7 -4 -10 -10z"/>
<path d="M1460 3264 c0 -8 5 -12 10 -9 6 3 10 10 10 16 0 5 -4 9 -10 9 -5 0
-10 -7 -10 -16z"/>
<path d="M2980 3273 c0 -19 11 -43 21 -43 13 0 11 14 -6 36 -8 10 -15 14 -15
7z"/>
<path d="M1195 3240 c-15 -17 -16 -23 -5 -33 10 -10 11 -9 5 2 -5 9 0 20 16
32 13 10 19 19 13 19 -6 0 -19 -9 -29 -20z"/>
<path d="M2950 3250 c0 -5 5 -10 10 -10 6 0 10 5 10 10 0 6 -4 10 -10 10 -5 0
-10 -4 -10 -10z"/>
<path d="M3123 3233 c-3 -10 -7 -21 -9 -24 -2 -3 3 -6 11 -6 8 0 17 9 21 19 3
10 10 15 16 12 7 -4 8 -2 4 4 -11 18 -36 14 -43 -5z"/>
<path d="M1238 3233 c7 -3 16 -2 19 1 4 3 -2 6 -13 5 -11 0 -14 -3 -6 -6z"/>
<path d="M1450 3220 c0 -11 7 -20 16 -20 8 0 12 5 9 10 -3 6 -1 10 5 10 6 0 8
5 5 10 -11 18 -35 11 -35 -10z"/>
<path d="M4548 3233 c-21 -5 -23 -19 -4 -26 14 -5 36 10 36 25 0 8 -4 9 -32 1z"/>
<path d="M1407 3223 c-4 -3 -7 -17 -7 -30 0 -30 33 -28 38 1 3 13 0 16 -9 11
-9 -6 -11 -3 -6 8 6 17 -4 23 -16 10z"/>
<path d="M3060 3219 c0 -5 5 -7 10 -4 6 3 10 8 10 11 0 2 -4 4 -10 4 -5 0 -10
-5 -10 -11z"/>
<path d="M3280 3222 c0 -6 -8 -13 -17 -15 -17 -4 -17 -5 0 -6 10 -1 17 -9 17
-22 0 -12 4 -17 11 -14 6 4 8 13 5 21 -7 18 -1 18 18 -2 9 -8 16 -11 16 -6 0
4 -11 19 -25 32 -14 13 -25 19 -25 12z"/>
<path d="M3168 3206 c-20 -14 -14 -28 8 -19 10 4 12 0 7 -13 -4 -12 -3 -15 5
-10 7 4 12 13 12 20 0 8 7 13 16 12 9 0 19 5 21 12 4 9 -1 10 -20 3 -15 -6
-27 -6 -29 -1 -2 5 -11 3 -20 -4z"/>
<path d="M3010 3200 c0 -5 5 -10 10 -10 6 0 10 5 10 10 0 6 -4 10 -10 10 -5 0
-10 -4 -10 -10z"/>
<path d="M4580 3191 c-13 -26 -13 -31 5 -31 9 0 15 9 15 25 0 30 -6 32 -20 6z"/>
<path d="M1370 3191 c0 -20 13 -41 25 -41 10 0 11 5 2 25 -12 25 -27 34 -27
16z"/>
<path d="M3256 3173 c-6 -14 -5 -15 5 -6 7 7 10 15 7 18 -3 3 -9 -2 -12 -12z"/>
<path d="M4535 3180 c3 -5 10 -10 16 -10 5 0 9 5 9 10 0 6 -7 10 -16 10 -8 0
-12 -4 -9 -10z"/>
<path d="M1135 3170 c-3 -5 -1 -10 4 -10 6 0 11 5 11 10 0 6 -2 10 -4 10 -3 0
-8 -4 -11 -10z"/>
<path d="M1205 3160 c-3 -5 -1 -10 4 -10 6 0 11 5 11 10 0 6 -2 10 -4 10 -3 0
-8 -4 -11 -10z"/>
<path d="M1340 3159 c0 -5 5 -7 10 -4 6 3 10 8 10 11 0 2 -4 4 -10 4 -5 0 -10
-5 -10 -11z"/>
<path d="M3210 3160 c0 -5 5 -10 11 -10 5 0 7 5 4 10 -3 6 -8 10 -11 10 -2 0
-4 -4 -4 -10z"/>
<path d="M1302 3133 c-15 -6 -6 -23 14 -23 8 0 14 7 14 15 0 15 -6 17 -28 8z"/>
<path d="M1437 3122 c-21 -23 -22 -32 -1 -32 9 0 12 5 8 11 -4 7 -1 10 7 7 8
-3 15 -10 15 -16 1 -7 2 -17 3 -23 0 -5 6 -7 11 -4 6 3 10 2 10 -4 0 -6 7 -8
15 -5 12 5 12 10 3 27 -6 12 -9 23 -7 24 2 1 1 5 -3 9 -5 4 -8 2 -8 -4 0 -20
-20 -13 -28 9 -8 20 -8 20 -25 1z"/>
<path d="M1710 3120 c0 -5 5 -10 11 -10 5 0 7 5 4 10 -3 6 -8 10 -11 10 -2 0
-4 -4 -4 -10z"/>
<path d="M1740 3110 c0 -5 5 -10 10 -10 6 0 10 5 10 10 0 6 -4 10 -10 10 -5 0
-10 -4 -10 -10z"/>
<path d="M1435 3070 c-3 -5 -2 -10 4 -10 5 0 13 5 16 10 3 6 2 10 -4 10 -5 0
-13 -4 -16 -10z"/>
<path d="M1340 3050 c0 -5 6 -10 14 -10 8 0 18 5 21 10 3 6 -3 10 -14 10 -12
0 -21 -4 -21 -10z"/>
<path d="M1476 3027 c3 -10 9 -15 12 -12 3 3 0 11 -7 18 -10 9 -11 8 -5 -6z"/>
<path d="M1507 3026 c-3 -6 4 -12 14 -12 11 0 19 4 19 8 0 5 10 3 23 -3 17 -9
20 -9 10 1 -16 17 -60 21 -66 6z"/>
<path d="M1430 2972 c0 -12 19 -26 26 -19 2 2 -2 10 -11 17 -9 8 -15 8 -15 2z"/>
<path d="M1320 2960 c0 -5 5 -10 10 -10 6 0 10 5 10 10 0 6 -4 10 -10 10 -5 0
-10 -4 -10 -10z"/>
<path d="M1276 2951 c-4 -7 -5 -15 -2 -18 9 -9 19 4 14 18 -4 11 -6 11 -12 0z"/>
<path d="M1240 2880 c0 -5 5 -10 10 -10 6 0 10 5 10 10 0 6 -4 10 -10 10 -5 0
-10 -4 -10 -10z"/>
<path d="M1410 2771 c0 -6 5 -13 10 -16 6 -3 10 1 10 9 0 9 -4 16 -10 16 -5 0
-10 -4 -10 -9z"/>
<path d="M3314 2773 c10 -11 37 -12 30 -2 -3 5 -12 9 -21 9 -9 0 -13 -3 -9 -7z"/>
<path d="M3237 2711 c3 -12 9 -19 13 -16 5 3 10 -1 13 -7 3 -9 8 -6 13 7 4 11
12 23 18 27 7 5 5 8 -6 8 -9 0 -18 -6 -21 -12 -3 -10 -7 -10 -20 0 -13 11 -15
10 -10 -7z"/>
<path d="M3430 2677 c0 -8 -8 -18 -17 -20 -17 -4 -17 -5 0 -6 18 -1 35 25 23
36 -3 4 -6 -1 -6 -10z"/>
<path d="M3418 2643 c-18 -3 -28 -10 -27 -21 0 -11 3 -12 6 -4 2 6 13 12 23
12 10 0 22 5 25 10 3 6 5 9 3 9 -2 -1 -15 -4 -30 -6z"/>
<path d="M3155 2580 c3 -5 8 -10 11 -10 2 0 4 5 4 10 0 6 -5 10 -11 10 -5 0
-7 -4 -4 -10z"/>
<path d="M2777 2560 c-3 -12 -10 -19 -16 -16 -5 4 -12 2 -16 -4 -4 -6 -11 -8
-16 -4 -17 10 -39 -4 -33 -21 3 -8 10 -13 14 -10 5 3 15 -2 24 -11 9 -8 20
-13 26 -9 5 3 18 -7 27 -23 10 -16 23 -27 30 -25 8 3 5 11 -8 24 -20 20 -27
45 -9 34 6 -3 10 0 10 9 0 8 3 23 7 33 3 10 2 14 -2 10 -5 -4 -14 2 -20 14
l-12 21 -6 -22z m8 -40 c3 -5 -3 -10 -14 -10 -12 0 -21 5 -21 10 0 6 6 10 14
10 8 0 18 -4 21 -10z"/>
<path d="M3076 2572 c-3 -6 8 -21 26 -33 18 -13 36 -28 40 -34 5 -6 8 -3 8 7
0 9 6 19 13 22 6 3 0 4 -15 2 -31 -4 -38 10 -10 18 10 3 6 4 -8 3 -14 -1 -30
4 -36 12 -7 9 -13 11 -18 3z"/>
<path d="M3156 2473 c-10 -13 -15 -27 -12 -30 3 -4 6 -1 6 5 0 19 18 14 23 -5
4 -17 5 -17 6 0 1 20 17 23 24 5 3 -8 6 -6 6 5 1 11 -7 17 -21 18 -21 0 -21 1
-4 8 15 6 16 9 5 13 -8 3 -22 -5 -33 -19z"/>
<path d="M1280 2446 c0 -2 7 -6 15 -10 8 -3 15 -1 15 4 0 6 -7 10 -15 10 -8 0
-15 -2 -15 -4z"/>
<path d="M3060 2400 c0 -11 4 -20 8 -20 4 0 8 9 9 20 1 11 -2 20 -8 20 -5 0
-9 -9 -9 -20z"/>
<path d="M1778 2403 c7 -3 16 -2 19 1 4 3 -2 6 -13 5 -11 0 -14 -3 -6 -6z"/>
<path d="M3026 2381 c-3 -5 12 -13 34 -19 22 -5 37 -6 34 -1 -3 5 -14 9 -25 9
-10 0 -19 5 -19 10 0 12 -17 13 -24 1z"/>
<path d="M1410 2365 c0 -8 2 -15 4 -15 2 0 6 7 10 15 3 8 1 15 -4 15 -6 0 -10
-7 -10 -15z"/>
<path d="M1348 2363 c7 -3 16 -2 19 1 4 3 -2 6 -13 5 -11 0 -14 -3 -6 -6z"/>
<path d="M2220 2354 c0 -8 5 -12 10 -9 6 4 8 11 5 16 -9 14 -15 11 -15 -7z"/>
<path d="M1290 2351 c0 -5 16 -12 35 -15 40 -8 52 -21 35 -41 -7 -8 -7 -15 -1
-19 5 -4 12 -2 15 3 6 10 4 63 -2 56 -2 -2 -19 3 -37 11 -40 16 -45 17 -45 5z"/>
<path d="M2001 2324 c0 -11 3 -14 6 -6 3 7 2 16 -1 19 -3 4 -6 -2 -5 -13z"/>
<path d="M2466 2324 c-4 -9 -4 -19 -1 -22 3 -3 5 -2 5 2 0 4 9 2 19 -3 17 -10
18 -9 7 14 -13 29 -21 31 -30 9z"/>
<path d="M3286 2318 c-9 -36 -7 -39 14 -21 23 20 26 43 6 43 -7 0 -16 -10 -20
-22z"/>
<path d="M3210 2320 c0 -5 5 -10 11 -10 5 0 7 5 4 10 -3 6 -8 10 -11 10 -2 0
-4 -4 -4 -10z"/>
<path d="M1390 2299 c0 -5 5 -7 10 -4 6 3 10 8 10 11 0 2 -4 4 -10 4 -5 0 -10
-5 -10 -11z"/>
<path d="M3245 2300 c-3 -5 -1 -10 4 -10 6 0 11 5 11 10 0 6 -2 10 -4 10 -3 0
-8 -4 -11 -10z"/>
<path d="M2585 2291 c-3 -5 -2 -12 3 -15 5 -3 9 1 9 9 0 17 -3 19 -12 6z"/>
<path d="M2877 2289 c7 -7 15 -10 18 -7 3 3 -2 9 -12 12 -14 6 -15 5 -6 -5z"/>
<path d="M3195 2290 c3 -5 8 -10 11 -10 2 0 4 5 4 10 0 6 -5 10 -11 10 -5 0
-7 -4 -4 -10z"/>
<path d="M2225 2279 c-9 -14 -2 -20 14 -10 8 6 9 11 3 15 -6 3 -14 1 -17 -5z"/>
<path d="M2140 2270 c-9 -6 -10 -10 -3 -10 6 0 15 5 18 10 8 12 4 12 -15 0z"/>
<path d="M2620 2270 c0 -6 7 -10 15 -10 8 0 15 2 15 4 0 2 -7 6 -15 10 -8 3
-15 1 -15 -4z"/>
<path d="M3270 2250 c-8 -5 -10 -10 -5 -10 6 0 17 5 25 10 8 5 11 10 5 10 -5
0 -17 -5 -25 -10z"/>
<path d="M2100 2245 c0 -5 5 -17 10 -25 5 -8 10 -10 10 -5 0 6 -5 17 -10 25
-5 8 -10 11 -10 5z"/>
<path d="M2944 2222 c2 -4 19 -8 38 -9 30 -1 31 -1 8 7 -33 11 -52 12 -46 2z"/>
<path d="M3031 2221 c-9 -6 -11 -14 -4 -26 9 -15 11 -14 15 9 3 14 5 26 4 26
0 0 -7 -4 -15 -9z"/>
<path d="M3275 2180 c-4 -6 -11 -8 -16 -5 -5 4 -15 0 -23 -7 -11 -11 -11 -17
-1 -31 13 -19 35 -23 35 -7 0 6 -7 10 -15 10 -8 0 -15 5 -15 10 0 15 16 12 34
-6 9 -8 20 -12 26 -9 14 9 12 25 -2 23 -7 -2 -12 5 -10 15 3 19 -3 23 -13 7z"/>
<path d="M3073 2174 c9 -3 17 -14 17 -25 0 -10 4 -19 10 -19 18 0 -7 45 -26
47 -16 2 -16 1 -1 -3z"/>
<path d="M3150 2160 c-8 -5 -18 -6 -24 -3 -5 3 -6 2 -3 -4 3 -5 16 -9 29 -8
13 1 31 -2 42 -7 13 -7 17 -7 14 3 -6 17 -42 29 -58 19z"/>
<path d="M2435 1740 c-3 -5 -1 -10 4 -10 6 0 11 5 11 10 0 6 -2 10 -4 10 -3 0
-8 -4 -11 -10z"/>
<path d="M2572 1700 c0 -14 2 -19 5 -12 2 6 2 18 0 25 -3 6 -5 1 -5 -13z"/>
<path d="M2006 1695 c-3 -9 0 -15 9 -15 22 0 18 -28 -5 -40 -11 -6 -20 -15
-20 -20 0 -6 9 -10 20 -10 11 0 20 7 20 15 0 8 4 15 8 15 7 0 8 33 3 63 -2 13
-29 7 -35 -8z"/>
<path d="M2387 1658 c-3 -23 -3 -48 1 -54 4 -7 8 12 9 42 3 64 -2 71 -10 12z"/>
<path d="M1959 1675 c-58 -31 -139 -176 -159 -282 -13 -72 -13 -86 1 -77 6 3
15 0 20 -7 7 -11 9 -10 9 4 0 39 74 137 103 137 10 0 13 8 10 24 -4 19 0 25
18 28 15 2 26 14 35 42 12 33 12 37 -1 32 -9 -3 -15 1 -15 10 0 23 -23 11 -38
-19 -7 -15 -17 -27 -23 -27 -5 0 -9 -10 -10 -22 -1 -13 -6 -3 -11 21 -9 40 -8
45 17 71 15 16 34 26 42 23 8 -3 13 0 11 8 -2 8 2 13 9 12 6 -2 11 6 10 17 -1
11 -1 20 -2 20 0 -1 -12 -7 -26 -15z"/>
<path d="M2250 1620 c0 -5 11 -10 25 -10 14 0 25 5 25 10 0 6 -11 10 -25 10
-14 0 -25 -4 -25 -10z"/>
<path d="M2355 1532 c3 -39 9 -47 23 -30 8 10 6 20 -8 38 l-18 24 3 -32z"/>
<path d="M2321 1526 c-8 -10 -9 -16 -1 -21 5 -3 13 1 16 10 9 22 -1 29 -15 11z"/>
<path d="M1990 1480 c0 -5 5 -10 10 -10 6 0 10 5 10 10 0 6 -4 10 -10 10 -5 0
-10 -4 -10 -10z"/>
<path d="M1791 1220 c0 -8 4 -22 9 -30 12 -18 12 -2 0 25 -6 13 -9 15 -9 5z"/>
<path d="M1849 1173 c-14 -79 0 -139 41 -187 16 -17 40 -56 54 -86 23 -49 78
-120 92 -120 9 0 -8 44 -19 52 -7 4 -7 11 0 20 6 7 14 30 18 51 4 21 16 42 26
48 12 6 19 21 19 37 0 16 5 33 12 40 15 15 -9 35 -65 53 -21 7 -43 21 -48 31
-5 10 -16 18 -23 18 -7 0 -24 8 -37 19 -28 22 -68 36 -70 24z"/>
<path d="M2733 1014 c-13 -14 -23 -33 -23 -42 1 -12 7 -9 25 13 14 17 25 36
25 43 0 16 -2 16 -27 -14z"/>
<path d="M2626 810 c-30 -32 -43 -39 -62 -34 -36 9 -71 -3 -77 -27 -5 -19 -11
-21 -43 -16 -21 4 -40 10 -43 14 -3 5 -23 8 -45 8 -46 0 -68 24 -49 54 12 18
8 31 -9 31 -4 0 -22 -23 -39 -50 -30 -48 -32 -50 -73 -48 -24 0 -48 -2 -54 -6
-15 -9 -16 -36 -1 -36 6 0 8 -8 4 -19 -4 -13 0 -23 12 -30 16 -9 18 -29 21
-205 2 -108 7 -196 10 -196 4 0 8 54 10 119 2 66 7 141 12 168 l8 48 3 -65 c1
-36 2 -78 1 -93 -1 -17 2 -26 8 -22 5 3 10 21 10 39 0 18 3 55 7 82 7 46 8 47
14 19 5 -25 7 -20 9 25 1 30 4 48 5 40 2 -8 7 -33 11 -55 l8 -40 6 35 c6 28 8
23 9 -31 2 -130 14 -279 22 -279 4 0 5 23 2 52 -5 39 -3 49 6 43 10 -6 12 7 9
53 -1 34 0 58 4 54 8 -8 29 -382 23 -393 -7 -10 5 -40 14 -35 3 2 5 79 5 170
-1 99 2 166 8 166 5 0 6 5 3 10 -7 11 15 80 26 80 4 0 10 36 14 80 5 57 11 80
20 80 21 0 29 -20 26 -61 -1 -21 3 -40 9 -44 5 -3 10 -24 10 -46 0 -28 4 -39
13 -37 16 6 21 72 7 99 -9 16 -9 23 -1 29 7 4 11 11 9 16 -1 5 5 20 15 34 9
15 18 46 21 70 6 72 28 63 26 -11 -1 -35 -1 -113 0 -174 2 -90 4 -102 11 -65
4 25 9 90 10 145 1 55 4 85 6 68 2 -18 8 -33 13 -33 5 0 7 -17 4 -37 -3 -29
-2 -33 5 -17 5 11 11 67 13 124 3 67 9 105 16 108 7 2 12 9 12 16 0 9 9 12 25
8 17 -3 25 0 25 9 0 17 -12 33 -25 36 -5 1 -17 4 -25 7 -10 4 -29 -8 -54 -34z
m1 -127 c-2 -16 -4 -3 -4 27 0 30 2 43 4 28 2 -16 2 -40 0 -55z m-297 -23 c0
-5 -4 -10 -10 -10 -5 0 -10 5 -10 10 0 6 5 10 10 10 6 0 10 -4 10 -10z m7
-147 c-2 -16 -4 -5 -4 22 0 28 2 40 4 28 2 -13 2 -35 0 -50z m50 -35 c-3 -8
-6 -5 -6 6 -1 11 2 17 5 13 3 -3 4 -12 1 -19z"/>
<path d="M0 350 l0 -350 170 0 c174 0 192 4 158 39 -11 10 -10 11 5 6 9 -4 17
-16 17 -26 0 -15 6 -19 23 -17 12 2 28 7 36 12 8 5 17 3 22 -5 8 -12 11 -12
19 1 5 8 10 21 10 28 0 6 5 12 12 12 6 0 20 7 30 17 19 17 24 8 8 -17 -10 -17
14 -50 38 -50 11 0 12 3 2 15 -9 11 -7 19 14 40 14 14 31 24 38 23 18 -4 20
34 3 56 -12 16 -17 17 -30 6 -12 -10 -15 -10 -15 3 0 9 -8 17 -17 20 -20 4
-19 4 35 23 15 6 15 7 -3 14 -11 5 -33 9 -49 9 -16 1 -39 11 -51 24 -51 49
-55 51 -92 38 -30 -11 -36 -11 -49 6 -14 17 -15 16 -10 -9 6 -28 -8 -48 -17
-24 -3 8 -4 45 -2 83 l4 68 -15 -40 c-19 -51 -32 -64 -26 -25 3 18 0 30 -7 30
-6 0 -11 16 -11 36 0 31 -3 35 -20 29 -14 -4 -20 -2 -20 9 0 8 -9 18 -21 21
-26 9 -51 -21 -44 -52 5 -22 -8 -32 -19 -14 -3 4 -20 11 -38 15 l-33 7 25 14
c14 8 21 14 17 15 -5 0 3 14 18 32 22 26 25 34 13 42 -8 6 -13 25 -12 44 1 26
-2 32 -18 32 -10 0 -17 4 -14 8 2 4 0 14 -6 22 -8 12 -9 12 -4 -2 4 -13 0 -18
-13 -18 -10 0 -21 8 -25 18 -3 9 -8 22 -12 29 -3 6 7 16 23 21 l28 10 -27 1
c-16 1 -28 6 -28 11 0 6 -4 10 -10 10 -6 0 -9 -134 -10 -350z m80 160 c0 -16
-4 -30 -10 -30 -11 0 -14 43 -3 53 11 12 13 8 13 -23z m100 -99 c0 -6 -4 -13
-10 -16 -5 -3 -10 1 -10 9 0 9 5 16 10 16 6 0 10 -4 10 -9z m60 -30 c0 -10 -7
-24 -15 -31 -12 -10 -16 -9 -21 4 -3 9 -4 23 0 31 8 21 36 19 36 -4z m-155
-21 c-3 -5 -11 -10 -16 -10 -6 0 -7 5 -4 10 3 6 11 10 16 10 6 0 7 -4 4 -10z
m155 -49 c0 -5 -7 -11 -15 -15 -9 -3 -15 0 -15 9 0 8 7 15 15 15 8 0 15 -4 15
-9z m207 -117 c-3 -3 -12 -4 -19 -1 -8 3 -5 6 6 6 11 1 17 -2 13 -5z m-207
-14 c0 -6 7 -10 16 -8 10 2 19 -3 21 -9 6 -18 -25 -16 -43 1 -16 17 -18 26 -4
26 6 0 10 -5 10 -10z m270 -45 c0 -8 -7 -15 -15 -15 -8 0 -15 7 -15 15 0 8 7
15 15 15 8 0 15 -7 15 -15z m56 -60 c-23 -23 -42 -8 -20 16 11 13 21 16 27 10
6 -6 4 -16 -7 -26z"/>
<path d="M81 664 c0 -11 3 -14 6 -6 3 7 2 16 -1 19 -3 4 -6 -2 -5 -13z"/>
<path d="M241 474 c0 -11 3 -14 6 -6 3 7 2 16 -1 19 -3 4 -6 -2 -5 -13z"/>
<path d="M321 424 c0 -11 3 -14 6 -6 3 7 2 16 -1 19 -3 4 -6 -2 -5 -13z"/>
<path d="M263 404 c-3 -8 -1 -20 6 -27 8 -8 11 -4 11 16 0 30 -7 35 -17 11z"/>
<path d="M4517 353 c8 -20 48 -63 59 -63 5 0 4 4 -1 8 -6 4 -16 19 -24 34 -15
30 -44 48 -34 21z"/>
<path d="M2490 330 c0 -16 4 -30 9 -30 5 0 9 14 9 30 -1 17 -5 30 -10 30 -4 0
-8 -13 -8 -30z"/>
<path d="M406 332 c-2 -4 -1 -14 4 -21 11 -19 41 -6 34 14 -6 16 -29 20 -38 7z"/>
<path d="M4472 310 c-10 -17 -7 -24 24 -56 33 -33 35 -38 24 -62 -9 -22 -9
-28 4 -38 9 -6 16 -19 16 -28 0 -11 9 -16 29 -16 l29 0 -1 75 c0 41 -4 72 -8
69 -5 -2 -20 -2 -34 2 -18 4 -25 13 -25 30 0 13 -9 28 -19 34 -25 13 -24 13
-39 -10z"/>
<path d="M480 290 c0 -5 5 -10 11 -10 5 0 7 5 4 10 -3 6 -8 10 -11 10 -2 0 -4
-4 -4 -10z"/>
<path d="M520 280 c0 -5 5 -10 11 -10 5 0 7 5 4 10 -3 6 -8 10 -11 10 -2 0 -4
-4 -4 -10z"/>
<path d="M2421 248 c1 -18 3 -25 6 -15 2 9 9 15 14 12 11 -7 11 -3 3 19 -11
27 -24 17 -23 -16z"/>
<path d="M4427 143 c-10 -10 -8 -65 2 -59 12 8 20 42 12 55 -4 6 -10 8 -14 4z"/>
<path d="M645 131 c-3 -5 -1 -12 5 -16 12 -7 30 2 30 16 0 12 -27 12 -35 0z"/>
<path d="M4230 94 c0 -19 4 -33 8 -30 8 5 4 66 -4 66 -2 0 -4 -16 -4 -36z"/>
<path d="M4523 86 c3 -8 -3 -22 -14 -32 -16 -15 -24 -16 -39 -6 -12 7 -21 8
-25 2 -3 -6 -1 -10 4 -10 6 0 11 -9 11 -20 0 -18 7 -20 70 -20 49 0 70 4 70
13 0 22 -18 40 -33 34 -11 -4 -14 -1 -10 9 3 7 14 14 24 14 10 0 19 5 19 11 0
7 -11 9 -30 6 -17 -4 -30 -2 -30 3 0 6 -5 10 -11 10 -6 0 -9 -6 -6 -14z"/>
<path d="M4480 64 c0 -8 5 -12 10 -9 6 4 8 11 5 16 -9 14 -15 11 -15 -7z"/>
<path d="M606 43 c7 -4 14 -17 17 -28 5 -16 5 -15 4 4 -1 14 -9 26 -17 28 -10
3 -11 2 -4 -4z"/>
<path d="M470 21 c0 -12 6 -21 15 -21 8 0 15 3 15 6 0 3 -7 12 -15 20 -13 14
-15 13 -15 -5z"/>
<path d="M591 14 c0 -11 3 -14 6 -6 3 7 2 16 -1 19 -3 4 -6 -2 -5 -13z"/>
<path d="M720 18 c0 -10 12 -12 41 -10 47 5 44 14 -6 19 -24 2 -35 -1 -35 -9z"/>
</g>
</svg>
